<svg width="400" height="94" viewBox="0 0 400 94" fill="none" xmlns="http://www.w3.org/2000/svg">
<g clip-path="url(#clip0_149_705)">
<path d="M139.569 67.9046C127.331 67.9046 117.359 57.9559 117.359 45.7393C117.359 33.5226 127.322 23.5739 139.569 23.5739C151.815 23.5739 161.779 33.5226 161.779 45.7393C161.814 57.9559 151.815 67.9046 139.569 67.9046ZM139.569 29.5361C130.605 29.5361 123.349 36.8182 123.349 45.7304C123.349 54.6426 130.64 61.9868 139.569 61.9868C148.497 61.9868 155.859 54.7046 155.859 45.7304C155.859 36.7562 148.568 29.5361 139.569 29.5361Z" fill="white"/>
<path d="M169.91 77.6851C168.167 77.6851 166.831 76.3828 166.831 74.7173C166.831 73.6453 167.433 72.6177 168.371 72.1127V40.0961C167.433 39.5911 166.831 38.5901 166.831 37.4915C166.831 35.826 168.203 34.5238 169.91 34.5238C172.22 34.5238 173.892 36.1627 174.229 38.6964C176.6 36.0918 180.077 34.5238 183.723 34.5238C192.289 34.5238 198.978 41.9388 198.978 51.418C198.978 60.8972 192.289 67.5769 183.723 67.5769C179.98 67.5769 176.697 66.2746 174.291 63.9004V72.4139C174.326 75.5855 172.547 77.6851 169.91 77.6851ZM183.688 40.4859C177.901 40.4859 174.326 46.1911 174.326 51.5066C174.326 56.822 177.538 61.6856 183.688 61.6856C189.837 61.6856 193.05 56.4145 193.05 51.4357C193.05 46.1645 189.475 40.4859 183.688 40.4859Z" fill="white"/>
<path d="M218.401 67.9046C209.64 67.9046 202.818 60.4896 202.818 51.0104C202.818 42.9664 208.773 34.2491 218.401 34.2491C227.063 34.2491 234.116 41.7616 234.116 51.0104C234.116 52.6493 232.709 54.0136 231.036 54.0136H209.03C210.136 58.0888 213.675 61.9602 218.392 61.9602C222.002 61.9602 224.842 60.9946 226.754 59.0544C227.32 58.4875 228.125 58.1508 228.992 58.1508C230.594 58.1508 231.965 59.4531 231.965 60.9857C231.965 61.8185 231.665 62.5538 231.134 63.0853C228.16 66.2923 223.878 67.8958 218.392 67.8958L218.401 67.9046ZM227.904 48.1312C226.833 44.0561 223.258 40.1846 218.409 40.1846C214.065 40.1846 210.047 43.6574 208.977 48.1312H227.904Z" fill="white"/>
<path d="M265.811 67.6034C263.166 67.6034 261.431 65.5038 261.431 62.3943V49.1766C261.431 43.3385 258.688 40.4593 253.069 40.4593C248.424 40.4593 245.079 43.7283 245.079 48.273V62.3589C245.079 65.495 243.309 67.568 240.699 67.568C238.956 67.568 237.62 66.2657 237.62 64.6002C237.62 63.5282 238.221 62.5006 239.159 61.9956V40.1935C238.186 39.662 237.62 38.6609 237.62 37.5535C237.62 35.8526 238.991 34.4794 240.628 34.4794C242.805 34.4794 244.371 35.7463 244.911 37.8193C246.512 36.2867 249.229 34.4794 253.105 34.4794C262.201 34.4794 267.386 39.9897 267.386 49.5664V61.9868C268.324 62.4917 268.926 63.4928 268.926 64.5913C268.891 66.3277 267.519 67.5946 265.811 67.5946V67.6034Z" fill="white"/>
<path d="M326.389 67.9046C317.628 67.9046 310.806 60.4896 310.806 51.0104C310.806 42.9664 316.761 34.2491 326.389 34.2491C335.051 34.2491 342.104 41.7616 342.104 51.0104C342.104 52.6493 340.697 54.0136 339.024 54.0136H317.018C318.124 58.0888 321.663 61.9602 326.38 61.9602C329.99 61.9602 332.839 60.9946 334.742 59.0544C335.308 58.4875 336.113 58.1508 336.98 58.1508C338.582 58.1508 339.953 59.4531 339.953 60.9857C339.953 61.8185 339.653 62.5538 339.122 63.0853C336.149 66.2923 331.866 67.8958 326.38 67.8958L326.389 67.9046ZM335.883 48.1312C334.812 44.0561 331.238 40.1846 326.389 40.1846C322.044 40.1846 318.027 43.6574 316.956 48.1312H335.883Z" fill="white"/>
<path d="M374.684 67.6034C372.038 67.6034 370.304 65.5038 370.304 62.3943V49.1766C370.304 43.3385 367.561 40.4593 361.942 40.4593C357.297 40.4593 353.952 43.7283 353.952 48.273V62.3589C353.952 65.495 352.182 67.568 349.572 67.568C347.829 67.568 346.493 66.2657 346.493 64.6002C346.493 63.5282 347.094 62.5006 348.032 61.9956V40.1935C347.059 39.662 346.493 38.6609 346.493 37.5535C346.493 35.8526 347.864 34.4794 349.501 34.4794C351.678 34.4794 353.244 35.7463 353.784 37.8193C355.385 36.2867 358.102 34.4794 361.978 34.4794C371.074 34.4794 376.259 39.9897 376.259 49.5664V61.9868C377.197 62.4917 377.799 63.4928 377.799 64.5913C377.763 66.3277 376.392 67.5946 374.693 67.5946L374.684 67.6034Z" fill="white"/>
<path d="M279.412 67.6654C277.668 67.6654 276.332 66.3631 276.332 64.6976C276.332 63.6257 276.934 62.598 277.872 62.0931V29.3766C276.934 28.8716 276.332 27.8706 276.332 26.772C276.332 25.1065 277.668 23.8043 279.412 23.8043H295.33C302.418 23.8043 308.205 29.5449 308.205 36.6233C308.205 41.7616 304.895 46.5366 300.179 48.4413L307.603 61.3312L307.807 61.4021C309.275 61.4021 310.585 62.7398 310.585 64.237C310.585 66.1417 309.045 67.5414 307.037 67.5414C305.364 67.5414 303.621 66.4429 302.657 64.7331L293.897 49.3095H283.827V62.3677C283.827 65.5747 282.057 67.6743 279.412 67.6743V67.6654ZM295.33 43.4979C299.108 43.4979 302.188 40.4593 302.188 36.6853C302.188 32.9114 299.108 29.7753 295.33 29.7753H283.827V43.4979H295.33Z" fill="white"/>
<path d="M393.063 67.6034C386.541 67.6034 383.232 63.4928 383.232 55.3513V40.4593H382.498C380.825 40.4593 379.524 39.1924 379.524 37.4915C379.524 35.7906 380.763 34.5237 382.232 34.5237H383.205V31.1838C382.267 30.6789 381.666 29.6778 381.666 28.5793C381.666 26.9138 383.037 25.6115 384.745 25.6115C387.391 25.6115 389.125 27.7111 389.125 30.8206V34.5237H394.877C396.381 34.5237 397.62 35.8614 397.62 37.4915C397.62 39.1216 396.319 40.4593 394.647 40.4593H389.161V55.3513C389.161 59.9581 390.196 61.659 393.036 61.659C393.806 61.659 394.912 61.4552 396.151 61.092C396.487 61.0211 396.753 60.9946 397.018 60.9946C398.39 60.9946 399.593 61.8982 399.894 63.165C400.266 64.5382 399.797 66.2037 397.885 66.8061C396.31 67.3731 394.673 67.6034 393.072 67.6034H393.063Z" fill="white"/>
<path d="M52.1182 30.2359C51.8439 29.9967 51.375 29.9967 51.1006 30.2359L36.2881 43.3296C36.0138 43.5688 35.7838 44.0738 35.7838 44.4459V62.7752C35.7838 63.1473 36.0846 63.4485 36.4562 63.4485H46.8356C47.2073 63.4485 47.5081 63.1473 47.5081 62.7752V52.0735C47.5081 51.7014 47.809 51.4002 48.1806 51.4002H55.0117C55.3834 51.4002 55.6842 51.7014 55.6842 52.0735V62.7752C55.6842 63.1473 55.9851 63.4485 56.3567 63.4485H66.7361C67.1077 63.4485 67.4086 63.1473 67.4086 62.7752V44.4459C67.4086 44.0738 67.1697 43.5688 66.9042 43.3296L52.0917 30.2359H52.1182Z" fill="white"/>
<path fill-rule="evenodd" clip-rule="evenodd" d="M98.3075 46.634H102.458C102.582 46.6075 102.714 46.6252 102.829 46.6783C102.944 46.7226 103.042 46.8112 103.112 46.9175C103.174 47.0238 103.21 47.1479 103.21 47.2719C103.21 47.3959 103.166 47.5199 103.095 47.6262L95.8124 63.0233C95.5558 63.5725 95.131 63.5725 94.8656 63.0233L87.5655 47.6262C87.4947 47.5199 87.4505 47.3959 87.4505 47.2719C87.4416 47.1479 87.477 47.0238 87.5478 46.9175C87.6186 46.8112 87.7159 46.7315 87.831 46.6783C87.946 46.634 88.0787 46.6163 88.2026 46.634H92.0429H92.0606H92.3789C92.3167 24.1848 74.0507 5.93557 51.6137 5.93557C36.7746 5.93557 23.0947 14.0239 15.9097 27.0378C15.1133 28.473 13.317 28.9957 11.8836 28.1984C10.4501 27.4099 9.92804 25.6027 10.7244 24.1675C18.9447 9.25771 34.6156 0 51.6137 0C77.3247 0 98.2452 20.9069 98.3075 46.634Z" fill="white"/>
<path fill-rule="evenodd" clip-rule="evenodd" d="M15.016 46.8733H11.1581L11.1669 46.8555H10.8485C10.906 69.3089 29.1738 87.5629 51.6138 87.5629C66.4529 87.5629 80.1328 79.4746 87.3178 66.4606C88.1142 65.0254 89.9193 64.5028 91.3439 65.3001C92.7774 66.0885 93.2994 67.8958 92.5031 69.331C84.2739 84.2319 68.6031 93.4985 51.6138 93.4985C25.8998 93.4985 4.97744 72.5867 4.91995 46.8555H0.752129C0.628249 46.8821 0.49552 46.8644 0.380489 46.8112C0.265457 46.7669 0.168123 46.6784 0.0973344 46.572C0.0353943 46.4657 0 46.3417 0 46.2177C0 46.0937 0.0442429 45.9696 0.115032 45.8633L7.40626 30.484C7.66287 29.9347 8.0876 29.9347 8.35306 30.484L15.6531 45.881C15.7239 45.9873 15.7682 46.1114 15.7682 46.2354C15.777 46.3594 15.7416 46.4835 15.6708 46.5898C15.6 46.6961 15.5027 46.7758 15.3877 46.829C15.2726 46.8733 15.1399 46.891 15.016 46.8733Z" fill="white"/>
</g>
<defs>
<clipPath id="clip0_149_705">
<rect width="400" height="93.4985" fill="white"/>
</clipPath>
</defs>
</svg>
