<svg xmlns="http://www.w3.org/2000/svg" id="canvas" viewBox="222.753 331.681 1036.410 122.774"><path d="M 236.73,363.95 C 236.48 364.59, 236.37 365.37, 236.29 367.15 C 236.21 368.92, 236.21 370.10, 236.32 372.84 C 236.43 375.59, 236.68 377.46, 236.85 380.87 C 237.01 384.27, 237.04 386.36, 237.16 389.86 C 237.27 393.35, 237.34 395.22, 237.40 398.35 C 237.46 401.49, 237.43 403.05, 237.46 405.53 C 237.50 408.00, 237.55 409.11, 237.58 410.73 C 237.60 412.34, 237.54 412.80, 237.58 413.59 C 237.63 414.38, 237.73 414.45, 237.80 414.68 C 237.88 414.92, 237.91 414.73, 237.94 414.75 C 237.98 414.78, 237.91 414.81, 237.98 414.81 C 238.05 414.82, 238.13 415.00, 238.29 414.78 C 238.45 414.55, 238.60 414.50, 238.78 413.70 C 238.96 412.89, 239.08 412.41, 239.20 410.77 C 239.31 409.14, 239.34 408.01, 239.35 405.52 C 239.35 403.03, 239.31 401.46, 239.23 398.31 C 239.16 395.17, 239.04 393.31, 238.97 389.81 C 238.89 386.30, 238.93 384.22, 238.87 380.80 C 238.81 377.38, 238.83 375.47, 238.67 372.72 C 238.50 369.98, 238.27 368.83, 238.04 367.07 C 237.81 365.31, 237.77 364.56, 237.51 363.94 C 237.25 363.31, 236.97 363.31, 236.73 363.95" style="stroke: black; fill: black;"/><path d="M 226.37,360.04 C 226.89 359.96, 227.39 359.49, 228.42 358.97 C 229.46 358.45, 230.13 358.12, 231.55 357.45 C 232.98 356.78, 233.90 356.17, 235.56 355.62 C 237.23 355.08, 238.20 354.90, 239.88 354.73 C 241.56 354.56, 242.47 354.52, 243.95 354.76 C 245.44 355.00, 246.15 355.24, 247.29 355.91 C 248.43 356.58, 248.97 357.06, 249.66 358.11 C 250.35 359.17, 250.62 359.80, 250.75 361.17 C 250.89 362.53, 250.80 363.27, 250.34 364.94 C 249.88 366.62, 249.47 367.54, 248.45 369.53 C 247.42 371.52, 246.70 372.71, 245.21 374.89 C 243.72 377.07, 242.72 378.26, 241.01 380.43 C 239.30 382.61, 238.27 383.76, 236.66 385.77 C 235.05 387.77, 234.20 388.77, 232.96 390.48 C 231.72 392.18, 231.07 392.94, 230.47 394.28 C 229.87 395.61, 229.76 396.11, 229.96 397.15 C 230.16 398.20, 230.47 398.78, 231.46 399.52 C 232.45 400.26, 233.22 400.44, 234.90 400.86 C 236.59 401.28, 237.71 401.36, 239.89 401.62 C 242.07 401.89, 243.35 401.96, 245.81 402.19 C 248.26 402.42, 249.61 402.47, 252.15 402.76 C 254.68 403.05, 256.03 403.24, 258.49 403.62 C 260.94 404.01, 262.18 404.30, 264.43 404.69 C 266.68 405.07, 267.74 405.31, 269.74 405.56 C 271.73 405.81, 272.66 405.95, 274.41 405.94 C 276.16 405.92, 277.00 405.88, 278.49 405.47 C 279.98 405.06, 280.66 404.73, 281.87 403.89 C 283.07 403.05, 283.61 402.55, 284.51 401.27 C 285.40 399.99, 285.82 399.16, 286.35 397.49 C 286.87 395.81, 287.02 394.73, 287.14 392.90 C 287.27 391.06, 287.24 390.03, 286.97 388.32 C 286.71 386.60, 286.43 385.69, 285.80 384.32 C 285.17 382.95, 284.73 382.30, 283.80 381.47 C 282.87 380.65, 282.29 380.35, 281.15 380.20 C 280.01 380.05, 279.27 380.11, 278.09 380.72 C 276.91 381.33, 276.22 381.89, 275.24 383.24 C 274.27 384.60, 273.80 385.56, 273.22 387.49 C 272.64 389.42, 272.42 390.72, 272.36 392.91 C 272.31 395.11, 272.41 396.41, 272.96 398.46 C 273.50 400.52, 273.97 401.58, 275.07 403.20 C 276.18 404.82, 276.92 405.55, 278.47 406.57 C 280.02 407.59, 280.94 407.90, 282.83 408.29 C 284.71 408.68, 285.83 408.74, 287.89 408.52 C 289.96 408.29, 291.13 407.99, 293.16 407.16 C 295.19 406.33, 296.19 405.69, 298.06 404.37 C 299.92 403.05, 300.84 402.26, 302.48 400.55 C 304.13 398.85, 304.91 397.76, 306.29 395.83 C 307.67 393.90, 308.40 392.71, 309.38 390.89 C 310.35 389.08, 310.70 388.00, 311.16 386.75 C 311.63 385.50, 311.70 384.93, 311.69 384.65 C 311.69 384.37, 311.36 384.52, 311.15 385.35 C 310.95 386.18, 310.71 387.19, 310.67 388.81 C 310.63 390.44, 310.68 391.65, 310.93 393.47 C 311.19 395.30, 311.38 396.39, 311.95 397.93 C 312.53 399.47, 312.90 400.27, 313.81 401.16 C 314.72 402.04, 315.34 402.26, 316.50 402.37 C 317.66 402.48, 318.33 402.28, 319.63 401.70 C 320.93 401.12, 321.65 400.58, 322.99 399.48 C 324.34 398.38, 325.12 397.52, 326.36 396.19 C 327.60 394.86, 328.20 394.03, 329.20 392.83 C 330.19 391.63, 330.67 390.85, 331.35 390.20 C 332.02 389.55, 332.19 389.36, 332.57 389.58 C 332.94 389.79, 333.01 390.16, 333.22 391.27 C 333.44 392.38, 333.37 393.36, 333.64 395.13 C 333.92 396.90, 334.09 398.19, 334.58 400.12 C 335.07 402.05, 335.32 403.21, 336.09 404.79 C 336.86 406.37, 337.35 407.10, 338.44 408.01 C 339.53 408.92, 340.19 409.24, 341.55 409.33 C 342.91 409.43, 343.71 409.26, 345.23 408.50 C 346.76 407.73, 347.60 407.12, 349.19 405.52 C 350.77 403.92, 351.60 402.94, 353.15 400.49 C 354.70 398.04, 355.45 396.47, 356.94 393.29 C 358.43 390.10, 359.21 388.23, 360.59 384.56 C 361.96 380.90, 362.63 378.78, 363.82 374.97 C 365.00 371.17, 365.59 369.08, 366.50 365.53 C 367.41 361.98, 367.86 360.15, 368.37 357.24 C 368.87 354.33, 368.98 353.00, 369.03 350.98 C 369.07 348.96, 368.92 348.05, 368.60 347.15 C 368.29 346.25, 367.90 346.07, 367.44 346.50 C 366.99 346.92, 366.66 347.54, 366.32 349.28 C 365.99 351.01, 365.84 352.33, 365.77 355.20 C 365.70 358.06, 365.90 360.00, 365.98 363.61 C 366.07 367.23, 366.09 369.45, 366.20 373.26 C 366.31 377.06, 366.37 379.18, 366.54 382.65 C 366.72 386.12, 366.74 387.83, 367.10 390.61 C 367.45 393.38, 367.75 394.65, 368.32 396.51 C 368.90 398.37, 369.54 399.29, 369.99 399.93 C 370.44 400.57, 370.63 400.46, 370.58 399.71 C 370.52 398.96, 370.02 398.04, 369.70 396.18 C 369.38 394.31, 369.26 393.11, 368.97 390.38 C 368.67 387.66, 368.44 385.98, 368.23 382.55 C 368.01 379.12, 367.95 377.01, 367.89 373.22 C 367.83 369.43, 367.83 367.20, 367.91 363.61 C 368.00 360.02, 368.23 358.10, 368.31 355.26 C 368.39 352.43, 368.38 351.14, 368.32 349.43 C 368.26 347.72, 368.14 347.14, 368.00 346.70 C 367.86 346.26, 367.75 346.42, 367.62 347.25 C 367.48 348.09, 367.53 348.94, 367.32 350.87 C 367.11 352.81, 367.04 354.08, 366.57 356.93 C 366.10 359.79, 365.80 361.63, 364.96 365.15 C 364.11 368.67, 363.53 370.75, 362.36 374.52 C 361.19 378.29, 360.50 380.40, 359.09 383.99 C 357.68 387.58, 356.86 389.43, 355.31 392.49 C 353.75 395.55, 352.83 396.98, 351.30 399.29 C 349.76 401.60, 349.04 402.53, 347.64 404.04 C 346.24 405.56, 345.53 406.09, 344.32 406.85 C 343.11 407.61, 342.58 407.83, 341.61 407.83 C 340.65 407.83, 340.23 407.62, 339.50 406.85 C 338.77 406.09, 338.46 405.46, 337.96 404.00 C 337.46 402.55, 337.36 401.44, 336.99 399.57 C 336.62 397.70, 336.51 396.44, 336.10 394.65 C 335.69 392.87, 335.56 391.87, 334.94 390.66 C 334.32 389.44, 333.90 388.95, 333.00 388.60 C 332.10 388.25, 331.53 388.35, 330.45 388.90 C 329.38 389.45, 328.76 390.23, 327.61 391.37 C 326.45 392.51, 325.90 393.32, 324.67 394.59 C 323.45 395.86, 322.66 396.64, 321.47 397.72 C 320.29 398.81, 319.71 399.37, 318.73 400.02 C 317.75 400.66, 317.32 400.92, 316.56 400.94 C 315.81 400.96, 315.47 400.86, 314.95 400.14 C 314.43 399.42, 314.24 398.74, 313.96 397.35 C 313.69 395.96, 313.73 394.91, 313.59 393.17 C 313.44 391.44, 313.45 390.27, 313.24 388.68 C 313.03 387.09, 312.89 386.11, 312.52 385.22 C 312.15 384.33, 311.96 384.08, 311.38 384.23 C 310.80 384.37, 310.39 384.83, 309.63 385.95 C 308.86 387.08, 308.55 388.13, 307.54 389.86 C 306.52 391.59, 305.87 392.74, 304.56 394.60 C 303.25 396.45, 302.53 397.51, 301.00 399.13 C 299.46 400.75, 298.61 401.48, 296.88 402.71 C 295.16 403.93, 294.22 404.50, 292.38 405.26 C 290.53 406.01, 289.49 406.27, 287.66 406.50 C 285.82 406.74, 284.83 406.71, 283.19 406.43 C 281.55 406.14, 280.76 405.92, 279.45 405.07 C 278.14 404.22, 277.54 403.59, 276.64 402.17 C 275.74 400.75, 275.37 399.81, 274.96 397.97 C 274.55 396.14, 274.52 394.96, 274.61 392.99 C 274.69 391.02, 274.92 389.83, 275.40 388.12 C 275.88 386.40, 276.27 385.58, 276.99 384.41 C 277.71 383.24, 278.19 382.80, 278.99 382.26 C 279.78 381.72, 280.23 381.64, 280.97 381.71 C 281.70 381.79, 282.05 381.97, 282.67 382.64 C 283.29 383.31, 283.61 383.87, 284.06 385.06 C 284.51 386.25, 284.74 387.06, 284.93 388.60 C 285.11 390.14, 285.09 391.09, 284.97 392.74 C 284.85 394.40, 284.73 395.40, 284.33 396.89 C 283.92 398.39, 283.63 399.11, 282.94 400.23 C 282.25 401.34, 281.84 401.76, 280.86 402.48 C 279.88 403.19, 279.33 403.45, 278.04 403.79 C 276.75 404.12, 276.02 404.16, 274.41 404.14 C 272.80 404.12, 271.91 403.98, 269.99 403.71 C 268.06 403.43, 267.02 403.17, 264.78 402.75 C 262.55 402.33, 261.30 402.01, 258.82 401.59 C 256.35 401.17, 254.96 400.96, 252.40 400.63 C 249.85 400.30, 248.48 400.21, 246.03 399.94 C 243.59 399.67, 242.31 399.52, 240.16 399.28 C 238.02 399.03, 236.90 398.93, 235.32 398.72 C 233.73 398.51, 233.08 398.57, 232.23 398.22 C 231.39 397.87, 231.17 397.61, 231.09 396.97 C 231.01 396.32, 231.14 396.07, 231.82 395.00 C 232.50 393.94, 233.20 393.23, 234.49 391.65 C 235.78 390.06, 236.62 389.05, 238.27 387.08 C 239.92 385.11, 240.97 383.99, 242.73 381.80 C 244.49 379.62, 245.54 378.42, 247.07 376.16 C 248.60 373.90, 249.35 372.65, 250.39 370.50 C 251.43 368.36, 251.84 367.34, 252.27 365.43 C 252.71 363.52, 252.81 362.61, 252.59 360.95 C 252.36 359.29, 252.03 358.44, 251.16 357.12 C 250.29 355.81, 249.60 355.21, 248.23 354.36 C 246.86 353.51, 246.00 353.23, 244.30 352.88 C 242.60 352.54, 241.60 352.52, 239.72 352.63 C 237.83 352.73, 236.71 352.84, 234.86 353.39 C 233.02 353.94, 232.00 354.58, 230.51 355.39 C 229.02 356.20, 228.34 356.65, 227.41 357.45 C 226.47 358.25, 226.04 358.87, 225.83 359.39 C 225.62 359.91, 225.85 360.13, 226.37 360.04" style="stroke: black; fill: black;"/><path d="M 353.57,382.33 C 353.82 382.56, 353.94 382.69, 354.79 382.81 C 355.63 382.92, 356.29 383.03, 357.78 382.92 C 359.27 382.81, 360.26 382.65, 362.22 382.25 C 364.18 381.86, 365.36 381.57, 367.59 380.97 C 369.81 380.37, 371.10 379.96, 373.34 379.25 C 375.58 378.55, 376.76 378.07, 378.77 377.45 C 380.78 376.82, 381.78 376.51, 383.41 376.12 C 385.04 375.72, 385.77 375.47, 386.91 375.47 C 388.06 375.48, 388.43 375.52, 389.13 376.14 C 389.83 376.76, 390.02 377.35, 390.41 378.56 C 390.80 379.78, 390.89 380.60, 391.09 382.22 C 391.29 383.84, 391.28 384.86, 391.41 386.66 C 391.55 388.45, 391.55 389.58, 391.78 391.19 C 392.01 392.80, 392.24 393.53, 392.55 394.70 C 392.85 395.87, 392.98 396.36, 393.30 397.05 C 393.63 397.75, 393.87 397.91, 394.19 398.15 C 394.50 398.40, 394.72 398.31, 394.89 398.27 C 395.06 398.23, 395.05 398.08, 395.04 397.95 C 395.04 397.82, 394.93 397.91, 394.86 397.64 C 394.79 397.37, 394.80 397.27, 394.69 396.61 C 394.59 395.95, 394.49 395.47, 394.33 394.34 C 394.16 393.21, 394.00 392.52, 393.87 390.96 C 393.75 389.39, 393.81 388.31, 393.70 386.50 C 393.58 384.68, 393.59 383.61, 393.29 381.89 C 392.99 380.16, 392.83 379.24, 392.19 377.86 C 391.54 376.47, 391.11 375.77, 390.08 374.98 C 389.04 374.19, 388.41 374.05, 387.00 373.91 C 385.59 373.77, 384.80 373.98, 383.03 374.30 C 381.27 374.61, 380.26 374.91, 378.19 375.48 C 376.13 376.05, 374.94 376.50, 372.70 377.15 C 370.47 377.80, 369.20 378.19, 367.01 378.72 C 364.82 379.26, 363.66 379.48, 361.75 379.84 C 359.84 380.20, 358.89 380.28, 357.48 380.53 C 356.06 380.79, 355.46 380.90, 354.68 381.13 C 353.89 381.36, 353.77 381.43, 353.55 381.66 C 353.33 381.90, 353.32 382.10, 353.57 382.33" style="stroke: black; fill: black;"/><path d="M 390.81,356.69 C 391.07 356.47, 391.10 356.14, 391.01 356.04 C 390.92 355.95, 390.61 356.07, 390.35 356.22 C 390.10 356.36, 389.78 356.59, 389.74 356.76 C 389.70 356.94, 389.82 357.28, 390.14 357.10 C 390.46 356.92, 391.23 356.23, 391.34 355.84 C 391.45 355.46, 391.02 355.18, 390.68 355.18 C 390.34 355.18, 389.97 355.55, 389.64 355.84 C 389.31 356.13, 389.03 356.36, 389.04 356.61 C 389.05 356.87, 389.33 357.10, 389.69 357.12 C 390.04 357.13, 390.54 356.90, 390.81 356.69" style="stroke: black; fill: black;"/><path d="M 402.46,377.54 C 402.31 378.08, 402.41 378.78, 402.55 380.04 C 402.69 381.29, 402.87 382.13, 403.17 383.80 C 403.47 385.48, 403.65 386.61, 404.06 388.40 C 404.47 390.20, 404.78 391.22, 405.22 392.78 C 405.66 394.34, 405.81 395.10, 406.26 396.20 C 406.70 397.31, 406.90 397.74, 407.44 398.30 C 407.98 398.86, 408.27 399.01, 408.96 398.99 C 409.64 398.98, 410.08 398.86, 410.87 398.21 C 411.67 397.57, 412.12 396.97, 412.93 395.76 C 413.74 394.55, 414.10 393.68, 414.90 392.16 C 415.71 390.65, 416.16 389.75, 416.96 388.17 C 417.77 386.59, 418.23 385.62, 418.92 384.27 C 419.61 382.92, 419.97 382.18, 420.43 381.42 C 420.88 380.65, 420.97 380.46, 421.19 380.44 C 421.41 380.43, 421.44 380.69, 421.51 381.34 C 421.59 381.99, 421.46 382.50, 421.57 383.69 C 421.68 384.89, 421.75 385.85, 422.06 387.32 C 422.36 388.78, 422.57 389.61, 423.09 391.02 C 423.62 392.43, 423.91 393.24, 424.66 394.36 C 425.42 395.47, 425.86 395.94, 426.87 396.59 C 427.88 397.25, 428.50 397.49, 429.71 397.63 C 430.92 397.78, 431.61 397.73, 432.90 397.32 C 434.20 396.92, 434.89 396.55, 436.19 395.62 C 437.50 394.68, 438.18 394.03, 439.42 392.64 C 440.65 391.25, 441.30 390.35, 442.36 388.66 C 443.43 386.98, 443.97 385.96, 444.75 384.22 C 445.53 382.47, 445.87 381.46, 446.27 379.94 C 446.67 378.43, 446.79 377.67, 446.74 376.66 C 446.69 375.64, 446.51 375.22, 446.04 374.86 C 445.56 374.50, 445.07 374.48, 444.37 374.85 C 443.68 375.22, 443.20 375.67, 442.58 376.72 C 441.95 377.77, 441.59 378.59, 441.24 380.11 C 440.89 381.63, 440.79 382.62, 440.81 384.32 C 440.84 386.01, 440.96 386.97, 441.35 388.59 C 441.75 390.21, 442.01 391.06, 442.77 392.40 C 443.53 393.74, 444.07 394.37, 445.16 395.28 C 446.25 396.20, 446.92 396.57, 448.20 396.98 C 449.48 397.40, 450.24 397.48, 451.57 397.37 C 452.89 397.26, 453.61 397.04, 454.85 396.45 C 456.08 395.86, 456.72 395.42, 457.76 394.43 C 458.80 393.44, 459.35 392.81, 460.06 391.50 C 460.78 390.18, 461.05 389.36, 461.34 387.86 C 461.63 386.36, 461.65 385.46, 461.51 384.01 C 461.37 382.57, 461.17 381.76, 460.65 380.62 C 460.13 379.49, 459.72 378.97, 458.90 378.35 C 458.07 377.73, 457.46 377.47, 456.53 377.52 C 455.60 377.57, 455.02 377.78, 454.24 378.59 C 453.47 379.41, 453.12 380.12, 452.66 381.61 C 452.20 383.11, 452.01 383.95, 451.95 386.08 C 451.89 388.20, 451.96 389.57, 452.36 392.25 C 452.75 394.93, 453.15 396.48, 453.92 399.47 C 454.70 402.46, 455.28 404.08, 456.25 407.20 C 457.22 410.32, 457.82 411.96, 458.76 415.06 C 459.70 418.16, 460.25 419.73, 460.96 422.69 C 461.67 425.66, 462.02 427.16, 462.32 429.89 C 462.61 432.62, 462.68 433.99, 462.45 436.36 C 462.22 438.73, 461.94 439.86, 461.17 441.75 C 460.40 443.63, 459.86 444.48, 458.61 445.80 C 457.35 447.12, 456.53 447.63, 454.89 448.35 C 453.25 449.08, 452.21 449.29, 450.40 449.42 C 448.58 449.56, 447.58 449.47, 445.84 449.02 C 444.09 448.58, 443.11 448.10, 441.67 447.20 C 440.24 446.31, 439.50 445.81, 438.67 444.54 C 437.84 443.27, 437.55 442.54, 437.52 440.87 C 437.49 439.19, 437.65 438.23, 438.52 436.19 C 439.39 434.15, 440.16 433.01, 441.86 430.68 C 443.57 428.36, 444.68 427.00, 447.02 424.55 C 449.36 422.10, 450.78 420.78, 453.55 418.44 C 456.31 416.09, 457.93 414.87, 460.87 412.82 C 463.80 410.78, 465.44 409.82, 468.22 408.23 C 471.00 406.64, 472.48 406.04, 474.77 404.87 C 477.06 403.70, 478.06 403.21, 479.68 402.37 C 481.29 401.53, 482.25 401.14, 482.83 400.68 C 483.41 400.22, 483.34 400.01, 482.59 400.08 C 481.85 400.16, 480.83 400.43, 479.10 401.05 C 477.37 401.68, 476.29 402.07, 473.94 403.20 C 471.59 404.33, 470.14 405.07, 467.34 406.72 C 464.54 408.38, 462.90 409.40, 459.93 411.49 C 456.96 413.58, 455.32 414.81, 452.48 417.17 C 449.64 419.53, 448.18 420.83, 445.72 423.28 C 443.26 425.74, 442.00 427.02, 440.19 429.44 C 438.37 431.87, 437.54 433.13, 436.64 435.43 C 435.75 437.72, 435.61 438.92, 435.72 440.93 C 435.83 442.94, 436.20 443.91, 437.18 445.49 C 438.16 447.07, 438.99 447.74, 440.62 448.83 C 442.25 449.92, 443.36 450.45, 445.34 450.96 C 447.33 451.46, 448.49 451.55, 450.55 451.37 C 452.62 451.19, 453.80 450.93, 455.67 450.06 C 457.53 449.19, 458.47 448.54, 459.90 447.02 C 461.33 445.49, 461.95 444.52, 462.83 442.43 C 463.71 440.34, 464.02 439.10, 464.30 436.55 C 464.58 434.00, 464.55 432.54, 464.23 429.68 C 463.91 426.82, 463.47 425.29, 462.72 422.26 C 461.97 419.24, 461.40 417.67, 460.47 414.55 C 459.53 411.43, 458.93 409.78, 458.03 406.67 C 457.12 403.56, 456.60 401.93, 455.92 398.98 C 455.25 396.03, 454.98 394.50, 454.64 391.93 C 454.30 389.35, 454.20 388.07, 454.21 386.11 C 454.22 384.16, 454.41 383.44, 454.68 382.14 C 454.96 380.85, 455.20 380.30, 455.59 379.65 C 455.97 379.00, 456.14 378.91, 456.59 378.89 C 457.04 378.88, 457.38 379.08, 457.84 379.57 C 458.31 380.06, 458.59 380.41, 458.92 381.34 C 459.24 382.26, 459.38 382.95, 459.46 384.18 C 459.54 385.41, 459.55 386.21, 459.32 387.48 C 459.08 388.75, 458.87 389.43, 458.28 390.53 C 457.69 391.63, 457.23 392.15, 456.37 392.98 C 455.51 393.81, 454.98 394.20, 453.99 394.70 C 453.00 395.21, 452.44 395.40, 451.40 395.51 C 450.35 395.62, 449.77 395.57, 448.76 395.25 C 447.75 394.92, 447.21 394.65, 446.35 393.89 C 445.49 393.14, 445.05 392.63, 444.45 391.48 C 443.86 390.33, 443.66 389.57, 443.39 388.15 C 443.11 386.72, 443.03 385.83, 443.09 384.34 C 443.14 382.85, 443.34 382.00, 443.65 380.68 C 443.97 379.35, 444.33 378.68, 444.66 377.71 C 444.99 376.73, 445.14 376.29, 445.31 375.81 C 445.49 375.33, 445.55 375.18, 445.53 375.32 C 445.51 375.46, 445.45 375.69, 445.22 376.50 C 444.98 377.31, 444.85 377.99, 444.36 379.36 C 443.88 380.72, 443.57 381.69, 442.79 383.31 C 442.02 384.94, 441.50 385.90, 440.49 387.47 C 439.48 389.04, 438.86 389.89, 437.75 391.18 C 436.64 392.48, 436.03 393.08, 434.93 393.94 C 433.84 394.80, 433.29 395.11, 432.28 395.50 C 431.27 395.89, 430.77 395.96, 429.88 395.90 C 428.99 395.84, 428.54 395.69, 427.81 395.19 C 427.09 394.68, 426.79 394.34, 426.27 393.37 C 425.74 392.40, 425.55 391.65, 425.20 390.34 C 424.84 389.04, 424.75 388.25, 424.49 386.84 C 424.23 385.43, 424.22 384.50, 423.90 383.28 C 423.58 382.06, 423.42 381.48, 422.89 380.74 C 422.36 379.99, 421.98 379.63, 421.24 379.56 C 420.51 379.49, 420.06 379.64, 419.22 380.37 C 418.38 381.10, 417.91 381.85, 417.05 383.20 C 416.20 384.55, 415.80 385.54, 414.94 387.10 C 414.09 388.67, 413.60 389.53, 412.78 391.01 C 411.96 392.48, 411.49 393.28, 410.83 394.47 C 410.16 395.66, 409.86 396.25, 409.45 396.96 C 409.05 397.67, 409.00 397.89, 408.79 398.02 C 408.59 398.15, 408.60 398.08, 408.43 397.61 C 408.26 397.14, 408.17 396.75, 407.94 395.68 C 407.72 394.61, 407.60 393.84, 407.29 392.28 C 406.98 390.73, 406.77 389.69, 406.41 387.90 C 406.05 386.10, 405.89 384.97, 405.48 383.31 C 405.07 381.65, 404.80 380.80, 404.36 379.60 C 403.92 378.41, 403.65 377.75, 403.27 377.34 C 402.89 376.93, 402.60 377.01, 402.46 377.54" style="stroke: black; fill: black;"/><path d="M 537.53,343.11 C 537.39 343.62, 537.48 344.10, 537.56 345.51 C 537.64 346.92, 537.71 347.83, 537.93 350.18 C 538.16 352.53, 538.34 354.14, 538.67 357.28 C 539.01 360.41, 539.29 362.37, 539.61 365.85 C 539.93 369.34, 540.02 371.35, 540.26 374.70 C 540.51 378.05, 540.59 379.68, 540.85 382.61 C 541.10 385.54, 541.26 387.01, 541.52 389.33 C 541.77 391.66, 541.93 392.68, 542.14 394.25 C 542.34 395.82, 542.40 396.34, 542.56 397.19 C 542.72 398.04, 542.83 398.18, 542.95 398.50 C 543.08 398.83, 543.10 398.76, 543.19 398.82 C 543.28 398.89, 543.31 398.90, 543.40 398.83 C 543.50 398.76, 543.56 398.82, 543.65 398.47 C 543.74 398.12, 543.85 397.96, 543.87 397.08 C 543.89 396.20, 543.88 395.67, 543.77 394.09 C 543.67 392.50, 543.57 391.48, 543.35 389.15 C 543.14 386.82, 542.98 385.36, 542.71 382.45 C 542.45 379.53, 542.28 377.92, 542.03 374.57 C 541.78 371.22, 541.70 369.20, 541.47 365.70 C 541.23 362.20, 541.09 360.23, 540.85 357.08 C 540.61 353.92, 540.58 352.28, 540.25 349.91 C 539.93 347.54, 539.63 346.62, 539.23 345.22 C 538.83 343.83, 538.60 343.38, 538.26 342.95 C 537.92 342.53, 537.67 342.60, 537.53 343.11" style="stroke: black; fill: black;"/><path d="M 528.16,378.90 C 528.45 379.01, 528.54 379.01, 529.34 378.85 C 530.13 378.70, 530.73 378.71, 532.13 378.13 C 533.53 377.56, 534.49 377.06, 536.34 375.98 C 538.19 374.90, 539.33 374.25, 541.37 372.73 C 543.42 371.20, 544.57 370.29, 546.57 368.37 C 548.57 366.44, 549.64 365.31, 551.38 363.11 C 553.11 360.91, 553.88 359.68, 555.23 357.37 C 556.58 355.06, 557.16 353.80, 558.14 351.57 C 559.11 349.34, 559.61 348.19, 560.11 346.22 C 560.61 344.26, 560.72 343.24, 560.63 341.75 C 560.55 340.26, 560.27 339.53, 559.69 338.76 C 559.10 338.00, 558.58 337.73, 557.72 337.95 C 556.86 338.17, 556.26 338.52, 555.38 339.85 C 554.50 341.18, 553.96 342.23, 553.33 344.60 C 552.70 346.97, 552.52 348.64, 552.23 351.71 C 551.94 354.79, 551.87 356.70, 551.87 359.97 C 551.87 363.24, 551.93 365.10, 552.23 368.07 C 552.52 371.05, 552.69 372.50, 553.34 374.85 C 553.98 377.20, 554.44 378.23, 555.46 379.82 C 556.48 381.41, 557.14 381.99, 558.44 382.81 C 559.74 383.63, 560.47 383.79, 561.97 383.92 C 563.47 384.05, 564.36 383.91, 565.94 383.44 C 567.52 382.97, 568.39 382.50, 569.86 381.57 C 571.33 380.64, 572.04 379.91, 573.29 378.79 C 574.53 377.66, 575.18 376.87, 576.06 375.95 C 576.95 375.02, 577.25 374.48, 577.71 374.16 C 578.17 373.83, 578.19 373.81, 578.36 374.34 C 578.53 374.86, 578.37 375.49, 578.56 376.79 C 578.75 378.09, 578.80 379.23, 579.32 380.82 C 579.84 382.41, 580.24 383.40, 581.17 384.73 C 582.11 386.05, 582.68 386.65, 584.00 387.44 C 585.33 388.23, 586.14 388.53, 587.81 388.69 C 589.48 388.85, 590.48 388.74, 592.35 388.25 C 594.23 387.76, 595.28 387.25, 597.18 386.24 C 599.09 385.22, 600.14 384.56, 601.89 383.17 C 603.65 381.78, 604.55 380.93, 605.97 379.28 C 607.38 377.63, 608.03 376.62, 608.98 374.91 C 609.93 373.21, 610.30 372.27, 610.70 370.75 C 611.11 369.23, 611.12 368.53, 611.00 367.31 C 610.88 366.08, 610.75 365.42, 610.09 364.64 C 609.44 363.86, 608.82 363.43, 607.73 363.41 C 606.63 363.39, 605.83 363.66, 604.62 364.54 C 603.42 365.43, 602.74 366.17, 601.70 367.83 C 600.65 369.49, 600.07 370.66, 599.40 372.85 C 598.74 375.04, 598.40 376.46, 598.38 378.78 C 598.35 381.09, 598.53 382.37, 599.28 384.42 C 600.03 386.46, 600.64 387.43, 602.13 388.99 C 603.61 390.56, 604.58 391.21, 606.70 392.22 C 608.82 393.23, 610.25 393.55, 612.72 394.06 C 615.18 394.57, 616.71 394.69, 619.00 394.75 C 621.30 394.82, 622.46 394.63, 624.18 394.40 C 625.89 394.17, 626.91 393.91, 627.57 393.62 C 628.24 393.32, 628.20 393.10, 627.51 392.93 C 626.81 392.76, 625.78 392.84, 624.10 392.77 C 622.42 392.71, 621.31 392.78, 619.12 392.61 C 616.93 392.43, 615.46 392.34, 613.14 391.90 C 610.82 391.46, 609.47 391.24, 607.53 390.41 C 605.58 389.57, 604.73 389.06, 603.44 387.73 C 602.15 386.41, 601.65 385.57, 601.07 383.79 C 600.48 382.02, 600.40 380.89, 600.52 378.84 C 600.63 376.79, 601.00 375.51, 601.64 373.55 C 602.27 371.58, 602.82 370.52, 603.68 369.02 C 604.54 367.53, 605.09 366.91, 605.92 366.08 C 606.74 365.25, 607.20 365.01, 607.81 364.89 C 608.43 364.77, 608.69 364.97, 609.00 365.47 C 609.32 365.97, 609.41 366.44, 609.40 367.39 C 609.40 368.35, 609.41 368.94, 608.98 370.24 C 608.55 371.55, 608.17 372.39, 607.26 373.93 C 606.34 375.46, 605.75 376.41, 604.41 377.93 C 603.07 379.44, 602.23 380.21, 600.58 381.49 C 598.92 382.77, 597.91 383.36, 596.15 384.31 C 594.39 385.26, 593.43 385.73, 591.78 386.23 C 590.14 386.74, 589.32 386.89, 587.95 386.83 C 586.58 386.77, 585.93 386.58, 584.92 385.94 C 583.92 385.30, 583.56 384.81, 582.92 383.63 C 582.29 382.46, 582.20 381.53, 581.77 380.05 C 581.33 378.57, 581.22 377.51, 580.73 376.22 C 580.25 374.94, 580.03 374.26, 579.35 373.62 C 578.66 372.97, 578.23 372.84, 577.31 373.01 C 576.38 373.17, 575.83 373.61, 574.73 374.44 C 573.63 375.27, 573.03 376.08, 571.82 377.15 C 570.61 378.22, 569.99 378.90, 568.69 379.78 C 567.39 380.66, 566.65 381.06, 565.32 381.55 C 563.99 382.05, 563.27 382.24, 562.05 382.24 C 560.84 382.23, 560.29 382.18, 559.25 381.53 C 558.20 380.87, 557.67 380.40, 556.84 378.97 C 556.02 377.55, 555.64 376.61, 555.12 374.40 C 554.59 372.18, 554.45 370.77, 554.20 367.89 C 553.95 365.01, 553.81 363.18, 553.87 359.99 C 553.92 356.80, 554.12 354.92, 554.48 351.96 C 554.85 349.00, 555.19 347.44, 555.71 345.19 C 556.24 342.95, 556.63 342.02, 557.11 340.75 C 557.59 339.49, 557.80 339.15, 558.11 338.87 C 558.43 338.58, 558.51 338.75, 558.68 339.33 C 558.85 339.90, 559.02 340.47, 558.94 341.75 C 558.86 343.04, 558.81 343.93, 558.29 345.73 C 557.77 347.53, 557.29 348.65, 556.33 350.77 C 555.37 352.89, 554.81 354.14, 553.49 356.34 C 552.18 358.55, 551.43 359.72, 549.74 361.81 C 548.06 363.90, 547.01 364.97, 545.07 366.78 C 543.12 368.59, 542.01 369.45, 540.02 370.86 C 538.03 372.27, 536.88 372.81, 535.09 373.84 C 533.31 374.86, 532.39 375.29, 531.11 375.99 C 529.83 376.70, 529.35 376.91, 528.71 377.37 C 528.06 377.83, 527.98 378.00, 527.87 378.30 C 527.76 378.61, 527.86 378.79, 528.16 378.90" style="stroke: black; fill: black;"/><path d="M 670.08,363.45 C 669.82 363.80, 669.68 364.13, 669.52 365.19 C 669.36 366.24, 669.24 367.04, 669.27 368.73 C 669.31 370.42, 669.42 371.59, 669.69 373.63 C 669.96 375.67, 670.16 376.95, 670.61 378.94 C 671.07 380.93, 671.35 381.99, 671.96 383.58 C 672.56 385.17, 672.89 385.86, 673.65 386.88 C 674.40 387.91, 674.84 388.30, 675.73 388.72 C 676.62 389.15, 677.15 389.20, 678.09 389.01 C 679.04 388.83, 679.53 388.57, 680.46 387.79 C 681.39 387.02, 681.90 386.47, 682.74 385.13 C 683.58 383.80, 684.00 382.85, 684.66 381.13 C 685.31 379.42, 685.51 378.37, 686.01 376.56 C 686.51 374.76, 686.80 373.71, 687.15 372.11 C 687.50 370.51, 687.63 369.54, 687.76 368.58 C 687.88 367.61, 687.75 367.25, 687.77 367.27 C 687.78 367.30, 687.70 367.63, 687.84 368.71 C 687.98 369.79, 687.99 370.86, 688.46 372.67 C 688.94 374.49, 689.33 375.78, 690.21 377.78 C 691.09 379.78, 691.69 380.94, 692.86 382.68 C 694.02 384.41, 694.71 385.27, 696.05 386.47 C 697.39 387.68, 698.14 388.13, 699.54 388.71 C 700.95 389.29, 701.75 389.39, 703.09 389.38 C 704.43 389.37, 705.09 389.23, 706.27 388.67 C 707.44 388.10, 707.97 387.71, 708.96 386.55 C 709.96 385.39, 710.50 384.59, 711.24 382.86 C 711.99 381.14, 712.24 380.02, 712.69 377.91 C 713.13 375.80, 713.30 374.39, 713.46 372.31 C 713.61 370.23, 713.52 369.12, 713.47 367.52 C 713.41 365.91, 713.37 365.23, 713.20 364.29 C 713.02 363.35, 712.81 363.10, 712.60 362.82 C 712.39 362.54, 712.27 362.59, 712.14 362.89 C 712.02 363.19, 712.09 363.40, 711.96 364.32 C 711.83 365.23, 711.64 365.90, 711.49 367.45 C 711.33 369.01, 711.41 370.10, 711.20 372.10 C 710.98 374.10, 710.79 375.46, 710.40 377.45 C 710.01 379.44, 709.82 380.47, 709.23 382.05 C 708.64 383.64, 708.21 384.34, 707.47 385.36 C 706.72 386.38, 706.39 386.70, 705.51 387.17 C 704.64 387.64, 704.15 387.70, 703.09 387.69 C 702.03 387.68, 701.38 387.64, 700.22 387.12 C 699.07 386.61, 698.45 386.24, 697.34 385.12 C 696.23 384.00, 695.64 383.19, 694.68 381.54 C 693.71 379.88, 693.28 378.75, 692.53 376.82 C 691.78 374.90, 691.55 373.66, 690.94 371.92 C 690.33 370.17, 690.10 369.15, 689.47 368.12 C 688.85 367.08, 688.44 366.75, 687.80 366.74 C 687.16 366.73, 686.81 367.09, 686.26 368.05 C 685.71 369.02, 685.52 369.98, 685.03 371.55 C 684.55 373.13, 684.35 374.20, 683.83 375.95 C 683.32 377.70, 683.09 378.70, 682.48 380.30 C 681.87 381.91, 681.46 382.76, 680.79 383.98 C 680.12 385.20, 679.74 385.69, 679.12 386.42 C 678.51 387.14, 678.27 387.38, 677.71 387.60 C 677.16 387.82, 676.90 387.83, 676.36 387.51 C 675.82 387.19, 675.51 386.91, 675.00 386.00 C 674.49 385.09, 674.24 384.46, 673.81 382.96 C 673.38 381.46, 673.17 380.43, 672.85 378.50 C 672.52 376.57, 672.42 375.30, 672.19 373.32 C 671.96 371.33, 671.87 370.20, 671.69 368.57 C 671.51 366.94, 671.45 366.20, 671.27 365.18 C 671.10 364.16, 671.06 363.82, 670.83 363.48 C 670.59 363.13, 670.35 363.11, 670.08 363.45" style="stroke: black; fill: black;"/><path d="M 733.73,366.93 C 733.60 366.63, 733.36 366.43, 732.82 366.24 C 732.28 366.06, 731.92 365.87, 731.05 366.01 C 730.18 366.15, 729.59 366.25, 728.48 366.96 C 727.37 367.67, 726.69 368.24, 725.51 369.55 C 724.32 370.86, 723.61 371.77, 722.54 373.51 C 721.47 375.26, 720.85 376.44, 720.15 378.28 C 719.45 380.12, 719.18 381.20, 719.05 382.70 C 718.92 384.21, 719.04 384.90, 719.51 385.81 C 719.98 386.71, 720.45 387.02, 721.38 387.24 C 722.31 387.45, 722.99 387.32, 724.18 386.87 C 725.36 386.42, 726.01 385.96, 727.33 384.98 C 728.64 384.00, 729.47 383.37, 730.76 381.95 C 732.05 380.53, 732.69 379.52, 733.78 377.86 C 734.86 376.21, 735.37 375.23, 736.20 373.66 C 737.04 372.09, 737.54 371.19, 737.95 370.03 C 738.37 368.87, 738.29 368.23, 738.28 367.87 C 738.28 367.50, 738.05 367.59, 737.93 368.20 C 737.81 368.80, 737.68 369.55, 737.68 370.90 C 737.67 372.25, 737.67 373.28, 737.90 374.95 C 738.14 376.62, 738.35 377.67, 738.87 379.24 C 739.39 380.81, 739.73 381.66, 740.52 382.78 C 741.32 383.90, 741.80 384.32, 742.82 384.84 C 743.84 385.36, 744.44 385.46, 745.62 385.38 C 746.81 385.29, 747.52 385.11, 748.75 384.43 C 749.98 383.75, 750.63 383.17, 751.78 381.96 C 752.92 380.76, 753.49 379.96, 754.48 378.40 C 755.47 376.83, 755.93 375.81, 756.71 374.13 C 757.50 372.44, 757.91 371.45, 758.41 369.96 C 758.92 368.47, 759.12 367.59, 759.23 366.67 C 759.35 365.76, 759.17 365.39, 758.99 365.38 C 758.81 365.37, 758.51 365.70, 758.34 366.64 C 758.17 367.59, 758.05 368.53, 758.12 370.11 C 758.18 371.69, 758.30 372.80, 758.66 374.54 C 759.03 376.28, 759.26 377.29, 759.93 378.80 C 760.59 380.31, 761.07 381.14, 762.01 382.10 C 762.94 383.06, 763.48 383.35, 764.58 383.61 C 765.68 383.87, 766.33 383.76, 767.53 383.38 C 768.73 383.00, 769.41 382.67, 770.59 381.70 C 771.76 380.73, 772.34 379.95, 773.42 378.51 C 774.50 377.08, 775.03 376.14, 776.01 374.52 C 776.98 372.89, 777.54 371.89, 778.31 370.40 C 779.09 368.90, 779.40 368.02, 779.87 367.05 C 780.34 366.07, 780.42 365.67, 780.67 365.53 C 780.92 365.38, 780.92 365.54, 781.11 366.32 C 781.30 367.11, 781.32 367.80, 781.61 369.44 C 781.90 371.08, 782.12 372.25, 782.57 374.54 C 783.02 376.82, 783.37 378.24, 783.88 380.87 C 784.39 383.49, 784.65 384.94, 785.12 387.67 C 785.60 390.40, 785.83 391.79, 786.25 394.52 C 786.67 397.24, 786.88 398.70, 787.21 401.31 C 787.54 403.91, 787.76 405.19, 787.90 407.53 C 788.03 409.87, 788.07 411.00, 787.90 413.02 C 787.72 415.04, 787.57 415.92, 787.03 417.62 C 786.50 419.31, 786.17 420.15, 785.21 421.48 C 784.26 422.82, 783.65 423.37, 782.26 424.29 C 780.86 425.21, 779.95 425.54, 778.22 426.10 C 776.50 426.66, 775.51 426.88, 773.64 427.09 C 771.76 427.29, 770.73 427.29, 768.87 427.11 C 767.00 426.92, 765.94 426.73, 764.30 426.18 C 762.66 425.62, 761.92 425.13, 760.66 424.35 C 759.41 423.57, 758.91 422.99, 758.02 422.28 C 757.14 421.56, 756.71 420.97, 756.24 420.76 C 755.78 420.54, 755.57 420.67, 755.70 421.20 C 755.84 421.72, 756.14 422.42, 756.92 423.37 C 757.70 424.32, 758.26 425.02, 759.60 425.96 C 760.95 426.90, 761.83 427.43, 763.65 428.07 C 765.46 428.71, 766.62 428.94, 768.66 429.15 C 770.71 429.36, 771.82 429.35, 773.86 429.12 C 775.90 428.89, 776.97 428.66, 778.86 428.01 C 780.75 427.36, 781.76 426.96, 783.33 425.86 C 784.89 424.77, 785.61 424.07, 786.69 422.54 C 787.78 421.00, 788.14 420.04, 788.75 418.17 C 789.36 416.30, 789.51 415.34, 789.73 413.19 C 789.94 411.04, 789.93 409.86, 789.83 407.43 C 789.72 405.01, 789.51 403.71, 789.20 401.06 C 788.89 398.42, 788.67 396.96, 788.28 394.22 C 787.88 391.47, 787.65 390.07, 787.22 387.32 C 786.79 384.57, 786.59 383.11, 786.15 380.46 C 785.70 377.80, 785.47 376.37, 785.01 374.05 C 784.55 371.74, 784.36 370.57, 783.84 368.89 C 783.32 367.21, 783.06 366.49, 782.39 365.65 C 781.72 364.81, 781.27 364.60, 780.48 364.68 C 779.69 364.77, 779.26 365.16, 778.45 366.08 C 777.63 367.01, 777.29 367.88, 776.41 369.33 C 775.53 370.78, 775.01 371.76, 774.05 373.33 C 773.09 374.90, 772.56 375.81, 771.59 377.17 C 770.62 378.53, 770.13 379.22, 769.19 380.14 C 768.25 381.05, 767.76 381.35, 766.90 381.76 C 766.04 382.17, 765.62 382.34, 764.90 382.19 C 764.18 382.03, 763.90 381.82, 763.30 380.99 C 762.70 380.16, 762.34 379.42, 761.91 378.05 C 761.48 376.67, 761.38 375.74, 761.15 374.11 C 760.92 372.47, 760.98 371.39, 760.76 369.87 C 760.54 368.34, 760.40 367.44, 760.05 366.49 C 759.71 365.54, 759.50 365.21, 759.05 365.14 C 758.60 365.07, 758.34 365.33, 757.81 366.14 C 757.28 366.95, 757.03 367.77, 756.41 369.18 C 755.79 370.59, 755.47 371.57, 754.70 373.18 C 753.94 374.78, 753.49 375.75, 752.59 377.21 C 751.68 378.67, 751.14 379.38, 750.17 380.48 C 749.19 381.58, 748.65 382.07, 747.70 382.72 C 746.76 383.36, 746.26 383.56, 745.42 383.72 C 744.59 383.88, 744.20 383.89, 743.53 383.51 C 742.86 383.13, 742.56 382.80, 742.06 381.83 C 741.56 380.86, 741.33 380.09, 741.03 378.65 C 740.73 377.20, 740.75 376.20, 740.56 374.60 C 740.38 373.00, 740.40 371.99, 740.10 370.64 C 739.81 369.29, 739.56 368.53, 739.08 367.87 C 738.61 367.22, 738.29 367.12, 737.74 367.39 C 737.18 367.65, 736.97 368.16, 736.29 369.20 C 735.61 370.25, 735.20 371.12, 734.33 372.61 C 733.45 374.09, 732.97 375.07, 731.92 376.62 C 730.86 378.18, 730.26 379.09, 729.06 380.39 C 727.85 381.70, 727.05 382.22, 725.90 383.16 C 724.75 384.11, 724.19 384.55, 723.31 385.12 C 722.44 385.68, 722.05 385.94, 721.52 385.99 C 720.99 386.04, 720.79 385.95, 720.66 385.35 C 720.53 384.75, 720.56 384.24, 720.88 383.00 C 721.20 381.76, 721.51 380.79, 722.25 379.15 C 722.99 377.51, 723.58 376.40, 724.60 374.79 C 725.61 373.19, 726.28 372.34, 727.31 371.14 C 728.34 369.94, 728.92 369.45, 729.76 368.80 C 730.59 368.15, 730.93 368.09, 731.49 367.91 C 732.05 367.73, 732.16 367.91, 732.55 367.88 C 732.95 367.85, 733.24 367.94, 733.48 367.75 C 733.71 367.56, 733.86 367.24, 733.73 366.93" style="stroke: black; fill: black;"/><path d="M 852.42,362.76 C 852.22 363.27, 852.22 363.93, 852.24 365.20 C 852.25 366.47, 852.30 367.36, 852.52 369.10 C 852.74 370.84, 852.98 372.04, 853.34 373.88 C 853.69 375.72, 853.89 376.71, 854.30 378.31 C 854.71 379.91, 854.90 380.70, 855.38 381.90 C 855.87 383.11, 856.25 383.63, 856.74 384.33 C 857.23 385.04, 857.44 385.17, 857.83 385.44 C 858.22 385.72, 858.48 385.73, 858.70 385.71 C 858.93 385.68, 858.98 385.50, 858.95 385.31 C 858.92 385.13, 858.74 385.12, 858.56 384.77 C 858.39 384.43, 858.39 384.28, 858.09 383.58 C 857.80 382.88, 857.45 382.43, 857.10 381.29 C 856.75 380.15, 856.60 379.43, 856.32 377.87 C 856.05 376.31, 856.00 375.30, 855.71 373.47 C 855.43 371.64, 855.23 370.43, 854.90 368.72 C 854.57 367.01, 854.40 366.15, 854.07 364.94 C 853.73 363.72, 853.57 363.08, 853.24 362.65 C 852.91 362.21, 852.62 362.25, 852.42 362.76" style="stroke: black; fill: black;"/><path d="M 850.16,341.57 C 849.98 341.84, 850.06 342.12, 850.13 342.46 C 850.21 342.80, 850.25 343.03, 850.54 343.27 C 850.83 343.50, 851.21 343.72, 851.58 343.65 C 851.95 343.57, 852.27 343.21, 852.40 342.87 C 852.52 342.53, 852.32 342.22, 852.19 341.94 C 852.06 341.65, 851.99 341.63, 851.75 341.46 C 851.51 341.29, 851.33 341.07, 851.01 341.09 C 850.69 341.11, 850.33 341.30, 850.16 341.57" style="stroke: black; fill: black;"/><path d="M 876.18,334.99 C 875.92 335.41, 875.81 335.89, 875.65 337.12 C 875.50 338.34, 875.46 339.11, 875.41 341.11 C 875.36 343.12, 875.41 344.54, 875.41 347.14 C 875.41 349.74, 875.43 351.29, 875.40 354.13 C 875.37 356.97, 875.29 358.52, 875.26 361.36 C 875.23 364.20, 875.17 365.72, 875.26 368.32 C 875.35 370.93, 875.40 372.20, 875.71 374.38 C 876.01 376.56, 876.23 377.53, 876.79 379.22 C 877.35 380.90, 877.70 381.65, 878.50 382.79 C 879.29 383.92, 879.79 384.36, 880.77 384.89 C 881.75 385.41, 882.33 385.47, 883.38 385.40 C 884.43 385.33, 884.99 385.13, 886.01 384.53 C 887.03 383.93, 887.61 383.45, 888.48 382.40 C 889.34 381.36, 889.71 380.65, 890.33 379.31 C 890.95 377.97, 891.24 377.15, 891.58 375.72 C 891.92 374.29, 892.01 373.49, 892.02 372.16 C 892.03 370.82, 891.92 370.17, 891.64 369.03 C 891.35 367.90, 891.07 367.36, 890.60 366.49 C 890.13 365.63, 889.81 365.28, 889.28 364.71 C 888.75 364.14, 888.45 363.90, 887.97 363.66 C 887.48 363.42, 887.14 363.49, 886.84 363.51 C 886.53 363.54, 886.53 363.67, 886.44 363.79 C 886.35 363.90, 886.37 363.93, 886.38 364.07 C 886.38 364.20, 886.35 364.27, 886.48 364.46 C 886.62 364.65, 886.76 364.74, 887.06 365.02 C 887.36 365.31, 887.58 365.41, 887.97 365.87 C 888.36 366.34, 888.62 366.63, 889.00 367.35 C 889.37 368.07, 889.63 368.51, 889.84 369.46 C 890.05 370.41, 890.12 370.95, 890.06 372.09 C 889.99 373.24, 889.85 373.94, 889.51 375.20 C 889.16 376.45, 888.87 377.21, 888.33 378.39 C 887.79 379.56, 887.47 380.17, 886.80 381.08 C 886.12 381.99, 885.67 382.39, 884.95 382.94 C 884.23 383.49, 883.89 383.72, 883.20 383.85 C 882.51 383.98, 882.16 383.98, 881.49 383.59 C 880.82 383.20, 880.46 382.87, 879.85 381.89 C 879.24 380.91, 878.91 380.24, 878.45 378.69 C 878.00 377.14, 877.79 376.23, 877.56 374.14 C 877.32 372.06, 877.30 370.82, 877.26 368.27 C 877.22 365.72, 877.28 364.22, 877.36 361.40 C 877.43 358.58, 877.52 357.03, 877.63 354.18 C 877.73 351.33, 877.85 349.77, 877.87 347.15 C 877.90 344.53, 877.86 343.09, 877.76 341.08 C 877.65 339.07, 877.52 338.32, 877.35 337.11 C 877.19 335.90, 877.18 335.43, 876.95 335.01 C 876.71 334.58, 876.44 334.57, 876.18 334.99" style="stroke: black; fill: black;"/><path d="M 927.49,358.25 C 927.08 358.06, 926.48 358.02, 925.65 358.18 C 924.81 358.33, 924.27 358.52, 923.31 359.03 C 922.36 359.55, 921.65 359.91, 920.87 360.75 C 920.09 361.59, 919.69 362.20, 919.41 363.25 C 919.13 364.30, 919.10 364.91, 919.46 365.99 C 919.82 367.08, 920.21 367.67, 921.22 368.67 C 922.24 369.67, 923.01 370.07, 924.54 370.98 C 926.07 371.90, 927.06 372.31, 928.88 373.23 C 930.70 374.16, 931.81 374.67, 933.65 375.61 C 935.48 376.55, 936.52 377.00, 938.06 377.92 C 939.60 378.85, 940.32 379.37, 941.36 380.26 C 942.39 381.15, 942.81 381.56, 943.26 382.37 C 943.70 383.18, 943.78 383.56, 943.57 384.30 C 943.36 385.03, 942.97 385.32, 942.22 386.07 C 941.47 386.82, 940.94 387.31, 939.81 388.04 C 938.69 388.77, 937.97 389.13, 936.59 389.70 C 935.21 390.28, 934.39 390.58, 932.90 390.90 C 931.41 391.22, 930.57 391.29, 929.16 391.30 C 927.76 391.30, 926.96 391.21, 925.87 390.93 C 924.79 390.65, 924.32 390.48, 923.73 389.90 C 923.13 389.33, 922.92 389.00, 922.89 388.06 C 922.86 387.13, 922.94 386.61, 923.56 385.24 C 924.18 383.86, 924.72 383.02, 925.98 381.18 C 927.24 379.34, 928.09 378.19, 929.85 376.03 C 931.61 373.87, 932.62 372.65, 934.77 370.39 C 936.93 368.13, 938.23 366.99, 940.62 364.72 C 943.01 362.46, 944.36 361.26, 946.74 359.06 C 949.12 356.85, 950.35 355.67, 952.52 353.71 C 954.70 351.75, 955.79 350.84, 957.62 349.25 C 959.44 347.66, 960.26 346.95, 961.64 345.76 C 963.01 344.58, 963.67 344.06, 964.48 343.32 C 965.30 342.58, 965.50 342.15, 965.71 342.06 C 965.92 341.96, 965.68 342.02, 965.52 342.84 C 965.36 343.67, 965.13 344.37, 964.91 346.17 C 964.69 347.97, 964.58 349.24, 964.42 351.86 C 964.25 354.47, 964.24 356.21, 964.10 359.24 C 963.96 362.27, 963.78 364.09, 963.72 367.01 C 963.65 369.93, 963.59 371.47, 963.75 373.85 C 963.92 376.23, 964.08 377.32, 964.55 378.92 C 965.02 380.51, 965.32 381.08, 966.10 381.83 C 966.87 382.58, 967.36 382.71, 968.43 382.67 C 969.50 382.63, 970.20 382.38, 971.45 381.62 C 972.70 380.86, 973.36 380.13, 974.68 378.86 C 976.00 377.59, 976.76 376.66, 978.05 375.28 C 979.34 373.90, 980.01 373.05, 981.12 371.96 C 982.24 370.86, 982.80 370.34, 983.64 369.80 C 984.48 369.25, 984.81 369.14, 985.31 369.25 C 985.81 369.36, 985.89 369.61, 986.13 370.36 C 986.37 371.10, 986.28 371.73, 986.49 372.97 C 986.71 374.22, 986.79 375.17, 987.20 376.58 C 987.60 377.98, 987.87 378.75, 988.51 380.01 C 989.16 381.27, 989.47 381.89, 990.41 382.86 C 991.36 383.84, 992.02 384.41, 993.24 384.86 C 994.47 385.32, 995.25 385.25, 996.56 385.13 C 997.87 385.00, 998.68 384.69, 999.80 384.22 C 1000.91 383.76, 1001.41 383.39, 1002.13 382.82 C 1002.85 382.24, 1003.21 381.76, 1003.38 381.35 C 1003.55 380.94, 1003.38 380.76, 1002.97 380.77 C 1002.55 380.77, 1002.08 381.08, 1001.29 381.38 C 1000.51 381.68, 1000.04 381.91, 999.04 382.26 C 998.04 382.62, 997.33 382.96, 996.30 383.14 C 995.26 383.33, 994.75 383.48, 993.85 383.17 C 992.95 382.86, 992.48 382.40, 991.78 381.60 C 991.08 380.80, 990.81 380.28, 990.35 379.16 C 989.89 378.03, 989.80 377.31, 989.47 375.97 C 989.15 374.63, 989.10 373.72, 988.72 372.45 C 988.33 371.17, 988.17 370.48, 987.55 369.60 C 986.93 368.73, 986.54 368.33, 985.61 368.07 C 984.68 367.82, 984.08 367.88, 982.91 368.34 C 981.74 368.80, 981.05 369.34, 979.74 370.40 C 978.43 371.45, 977.71 372.28, 976.35 373.63 C 974.99 374.97, 974.17 375.86, 972.95 377.13 C 971.73 378.40, 971.19 379.14, 970.24 379.99 C 969.30 380.84, 968.90 381.16, 968.24 381.38 C 967.58 381.59, 967.37 381.62, 966.94 381.06 C 966.51 380.49, 966.36 380.01, 966.11 378.55 C 965.86 377.09, 965.76 376.05, 965.70 373.76 C 965.65 371.46, 965.72 369.96, 965.85 367.08 C 965.98 364.20, 966.12 362.39, 966.34 359.38 C 966.56 356.36, 966.79 354.64, 966.97 352.02 C 967.14 349.41, 967.23 348.16, 967.22 346.30 C 967.21 344.45, 967.22 343.73, 966.92 342.74 C 966.62 341.75, 966.40 341.49, 965.74 341.37 C 965.07 341.24, 964.65 341.50, 963.60 342.11 C 962.56 342.72, 961.96 343.26, 960.51 344.41 C 959.07 345.55, 958.25 346.25, 956.39 347.83 C 954.54 349.41, 953.42 350.32, 951.24 352.30 C 949.07 354.28, 947.89 355.52, 945.52 357.74 C 943.15 359.96, 941.81 361.15, 939.38 363.41 C 936.96 365.66, 935.64 366.79, 933.38 369.02 C 931.12 371.25, 929.96 372.40, 928.10 374.57 C 926.24 376.75, 925.36 377.93, 924.07 379.91 C 922.79 381.90, 922.25 382.85, 921.69 384.51 C 921.13 386.17, 921.10 386.93, 921.28 388.22 C 921.46 389.52, 921.80 390.09, 922.61 390.98 C 923.41 391.87, 924.02 392.21, 925.32 392.68 C 926.63 393.15, 927.53 393.28, 929.12 393.34 C 930.72 393.40, 931.66 393.29, 933.32 392.97 C 934.98 392.65, 935.88 392.36, 937.42 391.73 C 938.96 391.11, 939.79 390.73, 941.04 389.84 C 942.29 388.96, 942.87 388.36, 943.66 387.32 C 944.46 386.27, 944.84 385.73, 945.03 384.61 C 945.23 383.49, 945.13 382.84, 944.64 381.71 C 944.14 380.57, 943.68 380.05, 942.58 378.95 C 941.48 377.85, 940.74 377.27, 939.16 376.21 C 937.58 375.15, 936.53 374.65, 934.69 373.65 C 932.84 372.64, 931.74 372.10, 929.94 371.17 C 928.13 370.24, 927.14 369.81, 925.67 369.01 C 924.19 368.21, 923.48 367.89, 922.56 367.17 C 921.63 366.44, 921.33 366.07, 921.03 365.40 C 920.74 364.73, 920.80 364.42, 921.07 363.81 C 921.35 363.21, 921.74 362.92, 922.42 362.36 C 923.10 361.80, 923.69 361.51, 924.47 361.03 C 925.24 360.55, 925.65 360.33, 926.29 359.94 C 926.94 359.56, 927.45 359.44, 927.69 359.11 C 927.93 358.77, 927.90 358.43, 927.49 358.25" style="stroke: black; fill: black;"/><path d="M 1011.98,367.59 C 1011.80 367.32, 1011.54 367.08, 1010.93 367.02 C 1010.33 366.97, 1009.81 366.86, 1008.96 367.31 C 1008.11 367.76, 1007.52 368.18, 1006.67 369.26 C 1005.83 370.35, 1005.37 371.16, 1004.74 372.74 C 1004.12 374.31, 1003.80 375.38, 1003.54 377.13 C 1003.28 378.89, 1003.19 379.93, 1003.42 381.51 C 1003.65 383.09, 1003.91 383.88, 1004.68 385.01 C 1005.45 386.14, 1006.06 386.62, 1007.27 387.18 C 1008.48 387.74, 1009.28 387.86, 1010.71 387.80 C 1012.15 387.74, 1013.02 387.52, 1014.46 386.90 C 1015.90 386.27, 1016.66 385.76, 1017.89 384.68 C 1019.12 383.60, 1019.66 382.85, 1020.59 381.51 C 1021.53 380.17, 1022.07 379.43, 1022.59 377.98 C 1023.10 376.53, 1023.18 375.65, 1023.17 374.25 C 1023.16 372.84, 1023.02 372.13, 1022.55 370.96 C 1022.07 369.78, 1021.62 369.19, 1020.79 368.37 C 1019.96 367.55, 1019.38 367.24, 1018.42 366.87 C 1017.46 366.49, 1016.87 366.45, 1015.98 366.48 C 1015.09 366.51, 1014.60 366.61, 1013.97 367.01 C 1013.33 367.41, 1012.95 367.79, 1012.81 368.47 C 1012.67 369.15, 1012.76 369.71, 1013.26 370.41 C 1013.76 371.10, 1014.30 371.47, 1015.33 371.95 C 1016.35 372.43, 1017.01 372.62, 1018.39 372.82 C 1019.77 373.02, 1020.64 373.07, 1022.21 372.95 C 1023.79 372.84, 1024.74 372.65, 1026.28 372.26 C 1027.82 371.86, 1028.67 371.41, 1029.91 370.99 C 1031.15 370.57, 1031.69 370.26, 1032.47 370.15 C 1033.26 370.05, 1033.50 370.02, 1033.84 370.45 C 1034.18 370.89, 1034.14 371.30, 1034.17 372.34 C 1034.21 373.38, 1034.07 374.17, 1034.01 375.66 C 1033.95 377.14, 1033.81 378.18, 1033.87 379.75 C 1033.93 381.32, 1034.00 382.19, 1034.30 383.51 C 1034.59 384.83, 1034.76 385.42, 1035.33 386.35 C 1035.91 387.27, 1036.27 387.68, 1037.18 388.15 C 1038.10 388.62, 1038.75 388.77, 1039.90 388.70 C 1041.04 388.63, 1041.71 388.42, 1042.92 387.80 C 1044.12 387.18, 1044.74 386.68, 1045.92 385.61 C 1047.11 384.55, 1047.74 383.85, 1048.82 382.47 C 1049.91 381.08, 1050.46 380.20, 1051.37 378.69 C 1052.28 377.17, 1052.73 376.21, 1053.36 374.89 C 1053.99 373.57, 1054.24 372.91, 1054.50 372.09 C 1054.77 371.27, 1054.74 370.93, 1054.69 370.79 C 1054.64 370.66, 1054.39 370.77, 1054.24 371.40 C 1054.09 372.03, 1053.89 372.70, 1053.94 373.94 C 1053.98 375.18, 1054.09 376.16, 1054.48 377.60 C 1054.87 379.05, 1055.18 379.89, 1055.90 381.17 C 1056.62 382.45, 1057.08 383.09, 1058.08 384.00 C 1059.07 384.90, 1059.68 385.31, 1060.86 385.70 C 1062.04 386.10, 1062.66 386.15, 1063.97 385.98 C 1065.28 385.81, 1066.03 385.60, 1067.43 384.86 C 1068.82 384.12, 1069.59 383.58, 1070.94 382.28 C 1072.28 380.99, 1072.93 380.19, 1074.15 378.37 C 1075.37 376.55, 1076.02 375.45, 1077.05 373.19 C 1078.08 370.94, 1078.52 369.61, 1079.30 367.10 C 1080.08 364.59, 1080.44 363.18, 1080.96 360.64 C 1081.48 358.09, 1081.71 356.70, 1081.91 354.36 C 1082.11 352.02, 1082.09 350.84, 1081.96 348.93 C 1081.84 347.03, 1081.72 346.15, 1081.27 344.86 C 1080.82 343.57, 1080.48 343.00, 1079.72 342.47 C 1078.96 341.93, 1078.37 341.82, 1077.46 342.18 C 1076.55 342.55, 1076.03 342.97, 1075.17 344.30 C 1074.32 345.62, 1073.85 346.61, 1073.19 348.82 C 1072.52 351.04, 1072.22 352.58, 1071.83 355.38 C 1071.45 358.18, 1071.30 359.87, 1071.25 362.82 C 1071.20 365.76, 1071.23 367.38, 1071.60 370.10 C 1071.98 372.82, 1072.28 374.18, 1073.13 376.41 C 1073.98 378.64, 1074.59 379.63, 1075.87 381.24 C 1077.15 382.85, 1077.95 383.47, 1079.54 384.48 C 1081.13 385.49, 1082.05 385.81, 1083.83 386.29 C 1085.61 386.76, 1086.58 386.87, 1088.45 386.86 C 1090.33 386.84, 1091.35 386.68, 1093.22 386.21 C 1095.08 385.74, 1096.03 385.32, 1097.78 384.51 C 1099.53 383.70, 1100.37 383.21, 1101.96 382.17 C 1103.56 381.13, 1104.41 380.53, 1105.75 379.32 C 1107.10 378.10, 1107.70 377.35, 1108.69 376.11 C 1109.69 374.88, 1110.22 374.28, 1110.74 373.15 C 1111.26 372.02, 1111.38 371.36, 1111.29 370.46 C 1111.21 369.56, 1110.97 369.14, 1110.32 368.65 C 1109.67 368.16, 1109.13 367.94, 1108.05 368.03 C 1106.96 368.12, 1106.23 368.32, 1104.90 369.12 C 1103.58 369.92, 1102.78 370.62, 1101.43 372.04 C 1100.08 373.46, 1099.31 374.47, 1098.14 376.23 C 1096.98 377.99, 1096.40 379.07, 1095.62 380.83 C 1094.84 382.59, 1094.52 383.56, 1094.24 385.01 C 1093.95 386.47, 1093.95 387.15, 1094.20 388.11 C 1094.44 389.06, 1094.77 389.42, 1095.46 389.80 C 1096.15 390.19, 1096.65 390.30, 1097.66 390.03 C 1098.66 389.76, 1099.35 389.43, 1100.50 388.46 C 1101.65 387.49, 1102.26 386.78, 1103.40 385.18 C 1104.53 383.58, 1105.09 382.56, 1106.19 380.44 C 1107.29 378.31, 1107.94 377.05, 1108.92 374.56 C 1109.89 372.06, 1110.33 370.60, 1111.07 367.97 C 1111.81 365.33, 1112.14 363.87, 1112.62 361.37 C 1113.10 358.88, 1113.26 357.55, 1113.48 355.48 C 1113.69 353.41, 1113.75 352.44, 1113.68 351.02 C 1113.61 349.60, 1113.51 348.96, 1113.13 348.36 C 1112.75 347.77, 1112.33 347.58, 1111.78 348.03 C 1111.24 348.47, 1110.83 349.07, 1110.41 350.59 C 1109.99 352.11, 1109.83 353.25, 1109.67 355.62 C 1109.52 357.98, 1109.51 359.62, 1109.64 362.44 C 1109.77 365.26, 1109.89 366.88, 1110.32 369.71 C 1110.74 372.54, 1111.07 374.07, 1111.77 376.57 C 1112.48 379.07, 1112.84 380.20, 1113.83 382.22 C 1114.81 384.24, 1115.44 385.13, 1116.70 386.67 C 1117.96 388.20, 1118.71 388.82, 1120.13 389.88 C 1121.55 390.94, 1122.32 391.38, 1123.82 391.97 C 1125.32 392.57, 1126.16 392.75, 1127.63 392.85 C 1129.11 392.94, 1129.93 392.80, 1131.20 392.46 C 1132.46 392.13, 1133.13 391.79, 1133.96 391.17 C 1134.80 390.56, 1135.18 389.85, 1135.36 389.37 C 1135.54 388.90, 1135.30 388.73, 1134.85 388.81 C 1134.41 388.89, 1133.96 389.42, 1133.14 389.78 C 1132.32 390.14, 1131.82 390.37, 1130.75 390.62 C 1129.67 390.86, 1129.00 391.05, 1127.75 390.98 C 1126.49 390.91, 1125.79 390.78, 1124.49 390.27 C 1123.18 389.76, 1122.50 389.37, 1121.22 388.42 C 1119.94 387.47, 1119.23 386.93, 1118.09 385.53 C 1116.94 384.13, 1116.36 383.33, 1115.48 381.43 C 1114.60 379.54, 1114.29 378.46, 1113.70 376.06 C 1113.10 373.65, 1112.83 372.15, 1112.50 369.41 C 1112.18 366.68, 1112.11 365.09, 1112.07 362.36 C 1112.03 359.63, 1112.20 358.04, 1112.29 355.75 C 1112.39 353.47, 1112.49 352.39, 1112.54 350.93 C 1112.59 349.46, 1112.59 348.90, 1112.54 348.43 C 1112.49 347.96, 1112.39 348.06, 1112.27 348.57 C 1112.16 349.08, 1112.11 349.64, 1111.97 350.97 C 1111.83 352.31, 1111.83 353.25, 1111.55 355.25 C 1111.28 357.25, 1111.10 358.54, 1110.59 360.96 C 1110.08 363.39, 1109.74 364.82, 1108.99 367.37 C 1108.24 369.93, 1107.81 371.33, 1106.85 373.74 C 1105.88 376.14, 1105.24 377.36, 1104.18 379.38 C 1103.11 381.41, 1102.55 382.37, 1101.51 383.85 C 1100.47 385.34, 1099.89 385.90, 1098.99 386.83 C 1098.09 387.76, 1097.62 388.08, 1097.01 388.48 C 1096.40 388.89, 1096.23 388.98, 1095.93 388.87 C 1095.63 388.75, 1095.51 388.60, 1095.53 387.92 C 1095.55 387.24, 1095.61 386.70, 1096.02 385.47 C 1096.42 384.24, 1096.74 383.34, 1097.56 381.75 C 1098.37 380.17, 1098.95 379.15, 1100.08 377.54 C 1101.21 375.93, 1101.98 375.01, 1103.20 373.70 C 1104.41 372.40, 1105.13 371.80, 1106.17 371.01 C 1107.22 370.22, 1107.70 370.03, 1108.40 369.76 C 1109.10 369.48, 1109.36 369.51, 1109.67 369.65 C 1109.97 369.79, 1110.04 369.92, 1109.94 370.45 C 1109.85 370.99, 1109.73 371.44, 1109.18 372.32 C 1108.63 373.20, 1108.14 373.75, 1107.19 374.85 C 1106.23 375.95, 1105.67 376.68, 1104.40 377.81 C 1103.14 378.94, 1102.36 379.51, 1100.86 380.48 C 1099.37 381.46, 1098.56 381.92, 1096.93 382.68 C 1095.30 383.43, 1094.42 383.81, 1092.72 384.25 C 1091.01 384.70, 1090.11 384.85, 1088.42 384.90 C 1086.73 384.95, 1085.88 384.87, 1084.29 384.48 C 1082.70 384.10, 1081.88 383.85, 1080.47 382.99 C 1079.07 382.12, 1078.37 381.60, 1077.25 380.16 C 1076.13 378.72, 1075.60 377.83, 1074.87 375.77 C 1074.15 373.71, 1073.91 372.43, 1073.62 369.85 C 1073.34 367.27, 1073.30 365.70, 1073.43 362.88 C 1073.55 360.06, 1073.81 358.41, 1074.23 355.73 C 1074.66 353.05, 1074.99 351.58, 1075.53 349.48 C 1076.08 347.38, 1076.45 346.48, 1076.96 345.24 C 1077.46 343.99, 1077.66 343.63, 1078.07 343.25 C 1078.47 342.86, 1078.65 342.91, 1078.98 343.32 C 1079.31 343.73, 1079.50 344.15, 1079.72 345.29 C 1079.95 346.43, 1080.06 347.24, 1080.10 349.02 C 1080.14 350.80, 1080.15 351.93, 1079.91 354.17 C 1079.67 356.41, 1079.44 357.75, 1078.90 360.20 C 1078.37 362.66, 1078.01 364.04, 1077.24 366.45 C 1076.48 368.87, 1076.05 370.14, 1075.07 372.29 C 1074.10 374.43, 1073.48 375.48, 1072.36 377.17 C 1071.23 378.87, 1070.63 379.58, 1069.45 380.76 C 1068.26 381.94, 1067.58 382.39, 1066.43 383.08 C 1065.28 383.76, 1064.69 384.00, 1063.68 384.20 C 1062.68 384.40, 1062.27 384.39, 1061.41 384.09 C 1060.55 383.78, 1060.11 383.43, 1059.39 382.66 C 1058.66 381.89, 1058.28 381.36, 1057.80 380.22 C 1057.32 379.09, 1057.26 378.33, 1056.99 377.01 C 1056.73 375.68, 1056.74 374.79, 1056.47 373.61 C 1056.21 372.44, 1056.05 371.80, 1055.66 371.14 C 1055.27 370.48, 1055.02 370.29, 1054.51 370.32 C 1054.01 370.36, 1053.73 370.59, 1053.12 371.31 C 1052.52 372.02, 1052.24 372.67, 1051.50 373.91 C 1050.77 375.15, 1050.35 376.09, 1049.46 377.53 C 1048.58 378.96, 1048.08 379.80, 1047.07 381.10 C 1046.06 382.39, 1045.47 383.02, 1044.43 384.00 C 1043.40 384.98, 1042.86 385.41, 1041.91 385.98 C 1040.96 386.56, 1040.50 386.72, 1039.69 386.87 C 1038.88 387.03, 1038.45 387.02, 1037.85 386.76 C 1037.26 386.51, 1037.03 386.30, 1036.71 385.59 C 1036.39 384.88, 1036.33 384.37, 1036.23 383.20 C 1036.13 382.03, 1036.19 381.24, 1036.23 379.74 C 1036.27 378.23, 1036.46 377.22, 1036.43 375.68 C 1036.41 374.14, 1036.41 373.26, 1036.08 372.04 C 1035.76 370.81, 1035.53 370.23, 1034.81 369.54 C 1034.08 368.85, 1033.56 368.70, 1032.47 368.59 C 1031.38 368.49, 1030.70 368.71, 1029.36 369.00 C 1028.02 369.30, 1027.21 369.74, 1025.75 370.08 C 1024.29 370.42, 1023.47 370.60, 1022.06 370.69 C 1020.65 370.78, 1019.89 370.70, 1018.71 370.53 C 1017.54 370.37, 1017.01 370.15, 1016.17 369.87 C 1015.32 369.60, 1014.93 369.39, 1014.49 369.16 C 1014.06 368.93, 1013.97 368.86, 1014.00 368.72 C 1014.03 368.58, 1014.25 368.55, 1014.65 368.47 C 1015.04 368.38, 1015.37 368.28, 1015.99 368.31 C 1016.61 368.33, 1017.04 368.31, 1017.74 368.59 C 1018.45 368.86, 1018.88 369.07, 1019.50 369.68 C 1020.12 370.29, 1020.50 370.72, 1020.87 371.63 C 1021.23 372.54, 1021.33 373.10, 1021.31 374.24 C 1021.28 375.37, 1021.22 376.08, 1020.74 377.29 C 1020.26 378.51, 1019.75 379.15, 1018.91 380.31 C 1018.06 381.47, 1017.57 382.17, 1016.51 383.11 C 1015.45 384.04, 1014.79 384.44, 1013.61 385.00 C 1012.42 385.55, 1011.71 385.74, 1010.58 385.86 C 1009.44 385.99, 1008.84 385.98, 1007.94 385.63 C 1007.04 385.27, 1006.60 384.97, 1006.09 384.11 C 1005.58 383.25, 1005.44 382.63, 1005.38 381.32 C 1005.33 380.00, 1005.49 379.08, 1005.82 377.54 C 1006.14 376.01, 1006.45 375.02, 1007.01 373.64 C 1007.56 372.26, 1007.97 371.57, 1008.58 370.65 C 1009.19 369.73, 1009.57 369.45, 1010.06 369.05 C 1010.56 368.64, 1010.70 368.75, 1011.05 368.62 C 1011.41 368.49, 1011.64 368.60, 1011.82 368.40 C 1012.01 368.19, 1012.16 367.87, 1011.98 367.59" style="stroke: black; fill: black;"/><path d="M 1178.46,345.63 C 1178.31 346.20, 1178.38 346.87, 1178.47 348.36 C 1178.56 349.84, 1178.66 350.84, 1178.91 353.06 C 1179.15 355.28, 1179.39 356.80, 1179.70 359.47 C 1180.02 362.13, 1180.20 363.70, 1180.49 366.38 C 1180.78 369.05, 1180.88 370.53, 1181.13 372.86 C 1181.39 375.19, 1181.53 376.28, 1181.77 378.02 C 1182.00 379.76, 1182.03 380.49, 1182.30 381.55 C 1182.58 382.62, 1182.68 383.02, 1183.12 383.33 C 1183.57 383.64, 1183.94 383.56, 1184.53 383.11 C 1185.13 382.66, 1185.48 382.18, 1186.09 381.10 C 1186.70 380.02, 1186.87 379.16, 1187.60 377.73 C 1188.34 376.30, 1188.77 375.40, 1189.76 373.97 C 1190.74 372.53, 1191.37 371.71, 1192.51 370.56 C 1193.66 369.42, 1194.27 368.92, 1195.48 368.24 C 1196.70 367.56, 1197.34 367.28, 1198.59 367.15 C 1199.85 367.02, 1200.57 367.17, 1201.76 367.57 C 1202.95 367.97, 1203.56 368.35, 1204.55 369.14 C 1205.55 369.93, 1206.05 370.45, 1206.72 371.54 C 1207.39 372.63, 1207.68 373.30, 1207.90 374.58 C 1208.12 375.86, 1208.11 376.60, 1207.83 377.93 C 1207.55 379.26, 1207.28 379.97, 1206.50 381.22 C 1205.73 382.47, 1205.18 383.12, 1203.96 384.19 C 1202.74 385.25, 1201.91 385.76, 1200.40 386.55 C 1198.89 387.34, 1197.93 387.64, 1196.39 388.15 C 1194.86 388.65, 1194.02 388.85, 1192.71 389.07 C 1191.41 389.29, 1190.73 389.24, 1189.86 389.24 C 1189.00 389.25, 1188.64 389.19, 1188.40 389.09 C 1188.15 388.99, 1188.24 389.02, 1188.65 388.75 C 1189.07 388.48, 1189.43 388.28, 1190.49 387.75 C 1191.54 387.22, 1192.28 386.86, 1193.93 386.08 C 1195.59 385.30, 1196.65 384.84, 1198.76 383.86 C 1200.88 382.89, 1202.11 382.26, 1204.52 381.20 C 1206.93 380.13, 1208.32 379.58, 1210.80 378.55 C 1213.28 377.52, 1214.67 377.07, 1216.92 376.04 C 1219.16 375.01, 1220.24 374.43, 1222.02 373.39 C 1223.80 372.36, 1224.57 371.88, 1225.83 370.89 C 1227.09 369.90, 1227.63 369.38, 1228.32 368.45 C 1229.01 367.52, 1229.15 367.10, 1229.28 366.24 C 1229.40 365.38, 1229.37 364.87, 1228.95 364.17 C 1228.54 363.46, 1228.13 363.05, 1227.21 362.72 C 1226.30 362.38, 1225.61 362.29, 1224.38 362.50 C 1223.16 362.72, 1222.39 362.98, 1221.09 363.80 C 1219.79 364.62, 1219.04 365.25, 1217.88 366.60 C 1216.72 367.95, 1216.06 368.82, 1215.29 370.55 C 1214.53 372.28, 1214.16 373.36, 1214.05 375.25 C 1213.94 377.15, 1214.05 378.29, 1214.76 380.03 C 1215.46 381.77, 1216.05 382.62, 1217.57 383.96 C 1219.08 385.30, 1220.17 385.86, 1222.33 386.72 C 1224.49 387.58, 1225.95 387.92, 1228.37 388.27 C 1230.80 388.62, 1232.05 388.52, 1234.46 388.49 C 1236.86 388.46, 1238.15 388.33, 1240.39 388.12 C 1242.63 387.90, 1243.78 387.78, 1245.67 387.41 C 1247.55 387.04, 1248.36 386.76, 1249.79 386.27 C 1251.23 385.79, 1251.83 385.57, 1252.84 384.99 C 1253.86 384.41, 1254.31 384.02, 1254.87 383.37 C 1255.43 382.71, 1255.44 382.25, 1255.65 381.72 C 1255.85 381.18, 1255.79 381.06, 1255.89 380.69 C 1255.99 380.33, 1256.22 380.15, 1256.15 379.89 C 1256.08 379.64, 1255.83 379.39, 1255.54 379.43 C 1255.24 379.48, 1254.94 379.76, 1254.69 380.11 C 1254.44 380.45, 1254.49 380.72, 1254.30 381.17 C 1254.10 381.62, 1254.17 381.87, 1253.72 382.35 C 1253.28 382.82, 1252.96 383.10, 1252.06 383.55 C 1251.17 384.00, 1250.62 384.21, 1249.27 384.60 C 1247.92 385.00, 1247.13 385.23, 1245.32 385.53 C 1243.51 385.83, 1242.39 385.92, 1240.21 386.10 C 1238.03 386.28, 1236.74 386.41, 1234.44 386.42 C 1232.13 386.42, 1230.96 386.47, 1228.69 386.14 C 1226.42 385.80, 1225.07 385.45, 1223.10 384.73 C 1221.12 384.01, 1220.12 383.59, 1218.79 382.52 C 1217.47 381.44, 1217.03 380.77, 1216.48 379.35 C 1215.93 377.92, 1215.89 376.98, 1216.05 375.40 C 1216.20 373.82, 1216.53 372.92, 1217.24 371.45 C 1217.94 369.98, 1218.56 369.22, 1219.57 368.07 C 1220.58 366.92, 1221.25 366.38, 1222.30 365.68 C 1223.35 364.98, 1223.95 364.81, 1224.84 364.56 C 1225.73 364.31, 1226.16 364.37, 1226.75 364.44 C 1227.35 364.51, 1227.56 364.60, 1227.81 364.91 C 1228.05 365.22, 1228.11 365.48, 1227.97 365.99 C 1227.84 366.51, 1227.77 366.79, 1227.13 367.49 C 1226.50 368.19, 1225.99 368.64, 1224.79 369.50 C 1223.59 370.35, 1222.85 370.82, 1221.11 371.76 C 1219.37 372.70, 1218.32 373.23, 1216.09 374.19 C 1213.87 375.14, 1212.48 375.55, 1209.99 376.54 C 1207.49 377.53, 1206.06 378.09, 1203.62 379.13 C 1201.19 380.16, 1199.95 380.77, 1197.80 381.73 C 1195.65 382.68, 1194.57 383.05, 1192.87 383.89 C 1191.18 384.74, 1190.38 385.13, 1189.33 385.95 C 1188.28 386.77, 1187.94 387.24, 1187.61 388.00 C 1187.29 388.76, 1187.30 389.17, 1187.71 389.75 C 1188.12 390.32, 1188.60 390.64, 1189.65 390.89 C 1190.70 391.14, 1191.50 391.15, 1192.97 391.00 C 1194.44 390.85, 1195.34 390.64, 1197.02 390.12 C 1198.70 389.61, 1199.72 389.30, 1201.39 388.42 C 1203.05 387.54, 1203.96 386.96, 1205.33 385.73 C 1206.69 384.49, 1207.32 383.73, 1208.20 382.25 C 1209.09 380.77, 1209.42 379.93, 1209.74 378.33 C 1210.07 376.73, 1210.10 375.81, 1209.83 374.25 C 1209.56 372.69, 1209.20 371.84, 1208.39 370.52 C 1207.57 369.19, 1206.97 368.57, 1205.76 367.62 C 1204.55 366.67, 1203.81 366.22, 1202.33 365.77 C 1200.86 365.31, 1199.94 365.19, 1198.40 365.35 C 1196.85 365.52, 1196.07 365.87, 1194.61 366.61 C 1193.15 367.35, 1192.45 367.86, 1191.10 369.05 C 1189.75 370.25, 1189.02 371.09, 1187.86 372.59 C 1186.71 374.09, 1186.10 375.04, 1185.32 376.55 C 1184.54 378.07, 1184.32 379.00, 1183.96 380.18 C 1183.60 381.35, 1183.58 381.87, 1183.51 382.43 C 1183.44 382.99, 1183.55 383.18, 1183.60 382.97 C 1183.66 382.75, 1183.78 382.39, 1183.77 381.36 C 1183.76 380.33, 1183.69 379.57, 1183.57 377.84 C 1183.44 376.10, 1183.32 375.01, 1183.15 372.68 C 1182.98 370.35, 1182.93 368.87, 1182.72 366.17 C 1182.52 363.47, 1182.42 361.88, 1182.13 359.19 C 1181.83 356.50, 1181.63 354.95, 1181.25 352.73 C 1180.87 350.50, 1180.62 349.51, 1180.22 348.06 C 1179.82 346.61, 1179.59 345.97, 1179.24 345.48 C 1178.89 345.00, 1178.62 345.06, 1178.46 345.63" style="stroke: black; fill: black;"/></svg>