<?xml version="1.0" encoding="UTF-8" standalone="no"?>
<svg width="30px" height="30px" viewBox="0 0 30 30" version="1.1" xmlns="http://www.w3.org/2000/svg" xmlns:xlink="http://www.w3.org/1999/xlink">
    <!-- Generator: Sketch 44.1 (41455) - http://www.bohemiancoding.com/sketch -->
    <title>Group 10</title>
    <desc>Created with Sketch.</desc>
    <defs></defs>
    <g id="Page-1" stroke="none" stroke-width="1" fill="none" fill-rule="evenodd">
        <g id="Desktop-1" transform="translate(-373.000000, -982.000000)">
            <g id="Group-4" transform="translate(285.000000, 982.000000)">
                <g id="Group-10" transform="translate(88.000000, 0.000000)">
                    <rect id="Rectangle-16-Copy-3" fill="#C5222A" x="0" y="0" width="30" height="30"></rect>
                    <path d="M21.2020211,11.4563005 L9.80221697,11.4563005 C9.82888779,11.4850967 9.83948305,11.4996391 9.85300114,11.5107535 C11.6895614,13.0148311 13.5270715,14.5178262 15.3611838,16.0248629 C15.4644328,16.1097359 15.5234374,16.0964203 15.6201831,16.0171045 C16.940535,14.9340358 18.2647597,13.855586 19.5877787,12.7757289 C20.1172493,12.3436417 20.6460258,11.9107968 21.2020211,11.4563005 L21.2020211,11.4563005 Z M21.5380735,13.1721276 C21.4731867,13.2211677 21.425508,13.2548355 21.3804599,13.2916065 C19.4664812,14.8540704 17.5516257,16.4154879 15.6416294,17.9826429 C15.5161669,18.0856308 15.4445941,18.0759238 15.3255253,17.9780961 C13.5291175,16.5015517 11.7286542,15.0299509 9.92899472,13.5573037 C9.78135527,13.4364896 9.6328755,13.3166859 9.46605498,13.181185 L9.46605498,19.5486071 L21.5380735,19.5486071 L21.5380735,13.1721276 Z M8,21 L23,21 L23,10 L8,10 L8,21 Z" id="Fill-1" fill="#FFFFFF"></path>
                </g>
            </g>
        </g>
    </g>
</svg>