<?xml version="1.0" encoding="UTF-8"?>
<svg id="Layer_2" xmlns="http://www.w3.org/2000/svg" version="1.1" viewBox="0 0 874.7 777.8">
  <!-- Generator: Adobe Illustrator 29.0.0, SVG Export Plug-In . SVG Version: 2.1.0 Build 186)  -->
  <defs>
    <style>
      .st0 {
        fill: #fff;
      }
    </style>
  </defs>
  <path class="st0" d="M870.2,232.2c9.8,58-41.6,110.9-99.9,102.8-4.7-36.8,11.5-72.7,43.7-91.5,16.3-9.5,37.6-14.9,56.2-11.3Z"/>
  <path class="st0" d="M121.4,466.1c33.5-3.3,65.1,9.9,84.3,37.7-30.3,39-90.1,43.9-127.6,12.1-2.6-2.2-14-13.7-14.7-16.1-.9-3.4,6.6-9.8,9.3-12.1,12.9-11.1,31.8-19.9,48.8-21.5Z"/>
  <path class="st0" d="M104.7,335c-58.1,8.1-109.9-44.8-99.8-102.8,41.7-6.7,83.9,21.4,96.1,61.4,4.2,13.9,4.7,26.9,3.7,41.4Z"/>
  <path class="st0" d="M295.8,547.1c-6.6,26.4-29.2,49.3-54.8,58.3-25.5,8.9-57.7,7-79.6-9.6,16.7-56.1,85.2-80.2,134.4-48.7Z"/>
  <path class="st0" d="M732.5,466.1c22.1-2.1,42.4,2.6,60.9,14.7s19.6,14.4,18.4,18.9-10.8,12.5-13.2,14.6c-38.1,33.3-97.9,29.2-129.1-10.6,13.7-20.5,38.2-35.3,63-37.7Z"/>
  <path class="st0" d="M736.7,430c10.2-57.4,80.4-89,130.5-58.7-13.3,57.4-78.3,85.8-130.5,58.7Z"/>
  <path class="st0" d="M138.3,430c-52,27.1-117.4-1.2-130.5-58.7,49.9-30.4,120.2,1.5,130.5,58.7Z"/>
  <path class="st0" d="M579.3,547.1c49.2-31.6,117.4-7.1,134.4,48.7-19.4,14.9-48.7,17.9-72.1,12-28.7-7.2-55.2-31.9-62.3-60.8Z"/>
  <path class="st0" d="M56.9,115.3c44.3,12.2,68.7,57.3,56.1,101.7s-5.9,17.3-8.8,17.9c-50.6-13.6-75.3-74.8-47.3-119.6Z"/>
  <path class="st0" d="M818.7,115.3c26.8,45.5,3.1,105.4-47.8,119.5-2.6-.5-6.9-12.1-7.8-14.9-14.9-45.1,9.7-92.7,55.6-104.6Z"/>
  <path class="st0" d="M734.3,37c38.6,26.7,38.1,86.8.9,114.6-38.1-27-38.3-86.7-.9-114.6Z"/>
  <path class="st0" d="M140.1,37c2.2-.6,9.9,7.7,11.7,9.8,22.9,27.1,23.1,66.3.5,93.6-1.6,1.9-9.7,10.4-11.3,10.4-5.1.1-17.3-17.1-19.9-21.8-11.2-20.3-11.9-45.5-2-66.4,2.8-5.8,15.1-24,21-25.6Z"/>
  <path class="st0" d="M387.5,354.8c16.3,1.6,30.7,12.7,23.8,30.7-2.6,6.6-7.7,7.6-12.4,11.9,19.8,3.3,21.7,32.1,4,40.1-2.2,1-10.4,3.5-12.4,3.5h-42.1v-86.2c12.5.9,26.8-1.2,39.1,0ZM365.2,390.5h20.3c4.4,0,10.3-5.6,10.5-10.4s-5-11.4-9.5-11.4h-21.3v21.8ZM365.2,427.1h22.3c5.4,0,9.8-7.2,9.5-12.4s-6.4-10.4-10.5-10.4h-21.3v22.8Z"/>
  <polygon class="st0" points="465.3 236 465.3 274.6 496.4 236 516.8 236 491 269.1 519.7 322.2 499.9 322.2 477.6 282.6 465.3 297.9 465.3 322.2 447.4 322.2 447.4 236 465.3 236"/>
  <path class="st0" d="M379.1,236v60.9c0,.4,3,5.7,3.5,6.4,5.5,7.2,20.8,6.9,26.2-.4s4-9,4-10.9v-56h16.8v62.9c0,2-4.1,11.3-5.5,13.3-13.9,19.3-62.8,13.9-62.8-14.3v-61.9h17.8Z"/>
  <path class="st0" d="M480.1,441l-13.9-.4-.9-8.5-8.6,7.8c-10.7,4.9-27.5,2.6-31.1-10.2s.2-19.6,10-23.8,11.5-3.5,13.4-3.5h15.4c.9-13.8-12.2-16.2-20.8-7.4-.8.8-.8,2.5-1,2.5h-14.9c-1.5-22,39.1-24.1,49-11.9s3.4,5,3.4,5.5v50ZM454.1,411.6c-23.4,2.9-10.8,26.7,4.1,17,5.5-3.6,7.7-10.8,5.1-16.9-3-.9-6.2-.5-9.2-.2Z"/>
  <path class="st0" d="M390,79.5c-.4-3.7,3.5-.7,5.4-4s2-29.2,1.4-35-.8-5.3-1.4-6.5c-1.5-2.9-6-1.7-5.4-5,6.8,1.8,13.9,0,20.8-1l.5,7.9c4.9-10.5,25.1-11.9,27.7,1,3.9-8.6,17.2-11.8,25-7.1s1.8,43.1,6.6,46.9,5.3-.4,4.6,2.9h-24.8c-.8-3.2,2.1-1.2,3.1-2.6s.8-2.8.9-3.9c.8-7.9,1.1-28.2,0-35.7-1.3-9.4-13.7-5.2-14.9,5s-.8,25,0,30.7,3.4,3.4,5.9,6.5h-24.8c-.7-3.1,2.1-1.4,3.5-3s1.2-3.3,1.4-4.6c.9-7.1.8-23.3.1-30.6-.3-3.8-.6-9.2-5.5-9.3s-8.8,4.5-9.4,8.4-.9,29.3,0,33.6,3.6,2.8,4.9,5.5h-25.8Z"/>
  <path class="st0" d="M305.8,3.2v31.7c2.8,0,2.5-2.4,5.2-4.2,8.6-5.3,23.1-4.5,24.5,7.6s-2,33.3,1.9,37.7,4.3,1.1,5,3.4h-25.8c-.2-3.7,4-.8,4.9-5.5-.7-11.2,1.1-23.7,0-34.7s-14.6-7.6-15.9,4-.7,22.3.1,28.6,2.4,4.3,5.8,7.5h-25.8c-.8-3.4,3.6-1.4,5-3.6s.8-4,.9-5.7c1-14.7,1.4-42.1,0-56.5s-.6-4.1-1.5-5.4c-1.6-2.2-5.1-.9-4.4-4h17.3c.3,0,1.4-1.4,2.5-1Z"/>
  <path class="st0" d="M492,3.2v32.7c11-13.5,30.2-9.4,32.6,8.5,2.2,16.9-1.7,38.3-23.2,37.1-4.7-.3-9.3-4-11.8-3.9-3.7,0-8.1,2.9-11.5,3.9V10.7c0-1.7-3.9-4.7-5.9-4.5v-2s17.3,0,17.3,0c.3,0,1.4-1.4,2.5-1ZM500.7,32.1c-6.1.8-8.3,6.8-8.7,12.2s-.6,29.1.2,31.6c1.2,3.6,9,4.1,12.2,1.7,6.9-5,6.7-26.2,5.3-34.1s-3.1-12.1-9-11.3Z"/>
  <path class="st0" d="M399.6,561.1c39.2-6.7,38.4,63,8.6,66-35.3,3.6-34.1-61.6-8.6-66ZM413.4,615c7-7.3,8.7-48.2-9.6-45.8-14.4,1.9-13.2,36.3-7.1,44.9,3.9,5.5,12.1,5.7,16.7.9Z"/>
  <path class="st0" d="M548.4,561.8v8.9h-30.2c-2.8,4.7-1.1,12.1-2.5,17.8,18.6-11.7,41.2-.6,36.4,23.1-4.3,21.3-44.3,19.9-49.4-.7l8.8-3.4c5.5,16.4,33.5,13.8,29.6-5.3s-8.2-9.9-14.1-9.7c-8.6.4-11.7,9-20.9,2.1l2.5-32.7h39.6Z"/>
  <path class="st0" d="M456.3,617.3h32.7v8.9h-45.6c-.2-4.7,0-9.5,1.3-14.1,4.8-17,31.9-18.7,33.4-31.1,1.9-15.8-25-14.9-24.8.5h-10.9c.4-29.2,52.8-28.2,46.3,3.3-1,4.9-6.3,9.7-10.3,12.4-7.8,5.2-23.3,8.5-22.1,20Z"/>
  <path class="st0" d="M335.5,617.3h32.7v8.9h-45.6c-.5-10.9.8-18.6,9.6-25.6,6.6-5.3,24-10.7,25.1-19.6,1.8-15.8-25-14.9-24.8.5h-10.9c.4-29.2,52.8-28.2,46.3,3.3-2.4,11.6-18.9,15.4-27,21.5-3.7,2.8-6.5,6-5.4,10.9Z"/>
  <path class="st0" d="M282,79.5c-3.4.7-1.6-4.6-4.4-5.8-16.5,13.2-41.3,6.8-51-11.5-17.5-32.9,21-67.8,51-45.1,2.5-1.3.9-6.6,4.5-5.9v23.8h-3c1.1-24.8-27.9-30.9-35.6-6.4s-3.7,42.7,12.8,48.5c14.4,5,24.1-9.2,22.8-22.3h3v24.8Z"/>
  <path class="st0" d="M384,76.5c.7.7,6-1.7,5,2-6.8,2.4-17.9,5-19.3-4.9-6.6,10-27.1,10.3-27.1-4.5s16.4-13,23.9-18.5,4.1-17.8-1.4-20.1-8.7-.7-9.9.5,3.3,3.2,4.2,5.2c5.6,13-16.5,15.4-14.1,1.3,1.9-10.9,30-13.4,36.1-3.5,4.9,8,1,41,2.5,42.5ZM369.2,51.8c-5.6,2.9-12.2,7.2-12.3,14.3-.3,12.7,12.3,7,12.3,5v-19.3Z"/>
  <path class="st0" d="M533.6,378.6v16.8c-5.5-1.8-14.2-1.5-18.4,2.9s-3.4,5.1-3.4,5.5v37.1h-16.8v-61.4h15.8c.1,3.4-.2,7,0,10.4s-.6,2.7,1,2.5c3-9.7,11.7-15.4,21.8-13.9Z"/>
  <path class="st0" d="M602.9,761.9h-9.9v-24.3c0-5.9-12.9-5.9-12.9,0v24.3h-9.9v-25.3c0-4.2-9.7-4.7-11.9-1v26.2h-10.9v-36.6h9.9s.5,4.9.5,4.9c7.1-7.5,15.4-6.8,22.7,0,4.5-8.8,22.4-5.4,22.4,3.5v28.2Z"/>
  <path class="st0" d="M127.5,710.4v22.8c2,.5,1.9-.8,2.8-1.7,5.7-5.6,11-14.7,16.2-20.9l11.7-.2-14.8,20.3,16.8,31.2-10.9-.5-12.9-23.3c-.5-.4-8.9,8.8-8.9,9.4v14.4h-9.9v-51.5h9.9Z"/>
  <path class="st0" d="M386,724.3v6.8c-.1,0-5.9,1.1-5.9,1.1,3.6,15.9-12.5,15.6-23.8,16.8,6.5,5.4,16.6.8,23.7,5.5s4.6,14.2-2.2,17.5c-6.6,3.2-30.3,3.6-33-5.1-1.2-4,2.8-7.6,6.5-8-6.1-5.4-4.8-9.8,3-11.9-.5-1.7-2.6-1.7-4-3.4-6.6-8.1-.9-17,8.5-18.3s13,2,17.7,1.8,6-3.2,9.5-2.9ZM369.9,740.8c5.6-5.9-4.7-14.7-10.4-9.4-6.8,6.4,4.1,16,10.4,9.4ZM355.5,766.6c4.4,2.7,21.4,4.6,18.5-4.1-2.4-3.6-17.7-3.9-19.1-.4l.6,4.5Z"/>
  <path class="st0" d="M571.2,49.8h-26.7c-2.8,10.8,3.4,27.5,17.1,22.5s5.4-5.5,9.7-6.7c-5.1,22.7-38.5,20.1-41.5-2.6-1.6-12.6.2-28.8,13.8-33.6,16.4-5.8,29.5,2.5,27.7,20.3ZM559.3,47.8c.5-4.6-1-18.5-7.4-17.9-7,2.9-7.8,11.1-7.5,17.9h14.9Z"/>
  <path class="st0" d="M452.4,727.2h-10.3c-4-12.8-19.9-12-22.2,1.7s-.8,21.4,6,24.3,10.1,1.3,13.1-2.3c4.7-5.8,1.5-8.4,13.4-6.9-2.2,26.4-39.7,24.2-43.3-.8-1.2-8-.8-17.5,3.9-24.3,9.9-14.8,37.5-10.6,39.4,8.2Z"/>
  <path class="st0" d="M615.8,60.7c2.8-.5,1.7.6,2.2,2.2,1.6,4.6,1.9,10.4,6.2,13.7,4,3.2,12.2,3.3,13.4-2.5,2.5-13-20.3-17.4-21.7-30.8s10.7-16.6,21.1-15.2,6.7,3.1,9,3,1.4-3.8,4.5-3v16.8h-3c1.3-8.7-10.8-20.9-17.4-11.9-6,8.2,10.4,15.7,15.4,20.4,15,13.8,3.8,30.4-14.3,28.2-3.3-.4-9.1-3.9-11-3.9-2.8,0-1.3,3.8-4.4,3v-19.8Z"/>
  <path class="st0" d="M623.7,709.4v20.8c1.6-.3,1.3-2,3.2-3.2,19.4-12,30.1,19.9,17.1,32s-18.8,5.2-21.8-4l-1.6,6.8h-6.8c0,.1,0-52.4,0-52.4h9.9ZM628.4,732.4c-6.9,2-7.3,23.8,3.6,23.3,10.8-.6,11-27.6-3.6-23.3Z"/>
  <path class="st0" d="M572.2,79.5c-.7-3.4,3.1-1,5.1-3.4s.8-2.6.9-4c.7-7.3,1-28.8-.1-35.6-.9-5.6-5-3.2-5.9-7.5,6.5,1.6,13.3.4,19.8-1l.5,7.9c3.9-7.2,18.1-12.7,21.5-2.7,5.8,16.8-23.6,15-11.1-1.8-7.1-.3-10.2,7.4-10.9,13.9-.6,5.6-1.1,27.5,3,30.7s7.3,0,6.9,3.5h-29.7Z"/>
  <path class="st0" d="M472.2,709.4v20.8c5.4-8.5,23.8-4.7,23.8,4.5v27.2h-10.9v-26.2c-2-4.3-12.9-2.1-12.9,1v25.3h-9.9v-52.5h9.9Z"/>
  <path class="st0" d="M537.5,761.9h-8.9s-1.5-4.9-1.5-4.9c-8.3,12-28.2,4.5-22.2-10.3,3.1-7.8,15.6-7.7,22.7-7.5.4-3.8-1.4-7.5-5.5-7.9-5.9-.6-8.6,7.7-16.2,4.9-1.1-13,22.7-14.3,28.8-7.5s2.9,5.4,2.9,6v27.2ZM527.6,744.1c-7.2-.5-17.4,1.4-12.6,10.7,8.4,4.1,14.1-2.1,12.6-10.7Z"/>
  <path class="st0" d="M242.4,761.9h-8.9s-1.5-4.9-1.5-4.9c-8.3,12-28.2,4.5-22.2-10.3s15.6-7.7,22.7-7.5c.4-3.8-1.4-7.5-5.5-7.9-5.9-.6-8.6,7.7-16.2,4.9-1.1-13,22.7-14.3,28.8-7.5s2.9,5.4,2.9,6v27.2ZM232.5,744.1c-7.2-.5-17.4,1.4-12.6,10.7,8.4,4.1,14.1-2.1,12.6-10.7Z"/>
  <path class="st0" d="M303.8,725.2h9.9s0,5,0,5c4.9-7.9,23.8-5.6,23.8,3.5v28.2h-9.9v-25.3c0-4-12.9-5.2-12.9,0v25.3h-10.9v-36.6Z"/>
  <path class="st0" d="M201.8,746h-24.8c-.5,7.2,5.6,10.8,12.2,8.7,2.2-.7,2.2-3.5,3.3-3.8,2.1-.5,6.9,0,9.2.5-5.7,16.6-32.2,14.1-34.6-3-4.3-30.9,37-32,34.6-2.4ZM191.9,740.1c1.3-11.4-14.8-10.6-14.9,0h14.9Z"/>
  <path class="st0" d="M691.1,746h-24.8c-.5,7.2,5.6,10.8,12.2,8.7,2.2-.7,2.2-3.5,3.3-3.8,2.1-.5,6.9,0,9.2.5-5.7,16.6-32.2,14.1-34.6-3-4.3-30.9,37-32,34.6-2.4ZM681.2,740.1c1.3-11.4-14.8-10.6-14.9,0h14.9Z"/>
  <polygon class="st0" points="469.2 118.1 476.9 118.3 496.9 146.9 496.9 118.1 503.9 118.1 503.9 159.7 497.1 159.5 476.1 129 476.1 159.7 469.2 159.7 469.2 118.1"/>
  <path class="st0" d="M408.3,118.1c10.2,2,10.5,19.7.4,23.4l8,18.2h-7.8c0-.1-6.2-16.7-6.2-16.7h-10.8c0-.1,0,16.7,0,16.7h-6.9v-41.6c6.8.9,16.9-1.3,23.3,0ZM392,136.9c23.5,4,23.4-17.8,0-13.9v13.9Z"/>
  <path class="st0" d="M298.6,117.4c28.9-3.8,31.1,47.4-2.2,42.3-17.5-2.7-19-39.5,2.2-42.3ZM298.6,123.3c-10.9,2.5-11.9,33.1,4.7,31.5,14-1.4,14.2-35.8-4.7-31.5Z"/>
  <path class="st0" d="M596,159.7v-41.6h18.3c.4,0,5.9,2.6,6.8,3.1,11.5,7.5,10.7,30.6-2.1,36.2-1,.4-7.1,2.2-7.7,2.2h-15.4ZM602.9,153.8c14.6,2.3,21.4-7.1,18.6-21.1s-12.5-12.2-18.6-8.2v29.2Z"/>
  <path class="st0" d="M758.4,736.1c-2.2-.3-5.3.5-7.2,0s-1.4-2.5-2.7-3.5c-3.4-2.6-11.1-1.9-10.9,3s16.4,2.7,20.6,11c9.1,17.7-28.3,22.9-30.6,4.3,2.5.4,6-.6,8.2,0s1.2,2.5,2.7,3.4c3.2,2.2,10.7,2.7,11.9-2,.6-6.6-15.3-4.1-19.9-10.1-12.9-17.1,28.7-26.7,27.8-6.2Z"/>
  <path class="st0" d="M522.7,118.1v19.8l16.3-18.9,8.5-.9-11.8,16.3,13.8,25.2c-1.9-.4-6.5.7-7.8-.2s-9.6-18-11.1-20.6c-7.7,5.6-9,11.5-7.9,20.8h-6.9v-41.6h6.9Z"/>
  <path class="st0" d="M586.1,118.1v5.9h-20.8v11.9h18.8v5h-17.3c-3,3.1-.9,8.8-1.5,12.9h21.8v5.9h-28.7v-41.6h27.7Z"/>
  <path class="st0" d="M256.3,732.2h-5.9s0-6.9,0-6.9h6.8c0,0,2.7-10.9,2.7-10.9h7.3c0,0,0,11,0,11h7.9s0,6.9,0,6.9h-7.9s0,22.8,0,22.8h7.9s0,6.9,0,6.9c-5.5,1.5-18.8,0-18.8-7.4v-22.3Z"/>
  <path class="st0" d="M460.3,159.7h-6.8c-.7-.6-2-7.7-3.2-9.3-2.3-3.1-12.3-1.1-16.1-1.4-4.6,5.5-1.1,12.9-11.5,10.7l15-41.4,8.3.8,14.3,40.6ZM447.4,142.9l-5.4-17.8c-1.6,2-7.1,17.2-6.4,17.8h11.9Z"/>
  <path class="st0" d="M337.5,159.7h-6.9v-41.6h21.3c1.9,0,7.6,5.1,8.5,7.4,2.5,6.3-.1,15.8-7,18s-11.7-1.4-15.9,1.9v14.4ZM337.5,138.9c23.4,3.7,23.3-19.6,0-15.8v15.8Z"/>
  <path class="st0" d="M700,725.2h8.9s0,7.9,0,7.9c3.5-3.6,7.6-10.2,13.4-8l.5,9c-2.8-1.3-12.9,1.4-12.9,4.5v23.3h-9.9v-36.6Z"/>
  <polygon class="st0" points="277.1 118.1 277.1 124.1 265.2 124.1 265.2 159.7 258.3 159.7 258.3 124.1 244.4 124.1 244.4 118.1 277.1 118.1"/>
  <rect class="st0" x="284" y="725.2" width="9.9" height="36.6"/>
  <rect class="st0" x="284" y="710.4" width="9.9" height="9.9"/>
</svg>